<svg xmlns="http://www.w3.org/2000/svg" width="50" height="50" viewBox="0 0 50 50">
    <g fill="none" fill-rule="evenodd">
        <path fill="#151515" d="M49.65 24.925a22.872 22.872 0 0 1-.214 3.262h-.863v.432h-2.301v-.432H43.76a2.016 2.016 0 0 1-.557.432h-2.185v-.432h-2.055l-.116.432H36.24l.207-.432h-.646l.126.432h-2.283l-.126-.432h-2.94l-.126.432h-2.228l.125-.432h-.456v.432H25.5v-.432h-2.381v.432h-2.283l.018-.432h-3.758v.432h-5.043l-.09-.432H9.068l-.098.432H6.621l.135-.432h-.751a3.066 3.066 0 0 1-.603.432H1.043v-.432H.457a23.046 23.046 0 0 1-.229-3.262C.232 11.318 11.238.276 24.845.228h.208a24.594 24.594 0 0 1 11.82 3.048l.367.208a24.699 24.699 0 0 1 12.41 21.44z"/>
        <path fill="#151515" fill-rule="nonzero" d="M48.797 28.845h-2.74v-.432h-2.196a2.14 2.14 0 0 1-.553.409l-.1.023h-2.425v-.432h-1.657l-.117.432h-5.525l-.126-.432h-2.611l-.126.432h-5.345v-.432h-1.938v.432H20.6l.019-.432h-3.3v.432h-5.447l-.089-.432H9.25l-.098.432H6.32l.134-.432H6.09c-.178.155-.373.29-.58.404l-.107.028H.812v-.432H.254l-.025-.194A23.404 23.404 0 0 1 0 24.925C.025 11.202 11.12.07 24.842 0h.208a24.989 24.989 0 0 1 11.936 3.075l.37.208a25.011 25.011 0 0 1 12.528 21.642 23 23 0 0 1-.229 3.294l-.027.192h-.833l.002.434zm-2.302-.457h1.852v-.431h.893c.13-1.008.192-2.023.187-3.04a24.56 24.56 0 0 0-12.3-21.25l-.367-.206A24.534 24.534 0 0 0 25.05.457h-.205C11.375.529.485 11.454.457 24.925a23.096 23.096 0 0 0 .196 3.038h.628v.432h4.061c.183-.105.354-.23.51-.372l.064-.06h1.141l-.135.432h1.861l.098-.432h3.265l.09.432h4.636v-.432h4.215l-.019.432h1.827v-.432h2.826v.432h1.932v-.432h.99l-.125.432h1.76l.126-.432h3.285l.126.432h1.801l-.125-.432h1.304l-.208.432h2.077l.117-.432h2.459v.432h1.91c.17-.096.325-.217.457-.36l.067-.072h2.837l-.016.425z"/>
        <path fill="#666" d="M37.76 46.057a25.785 25.785 0 0 1-3.173 1.635c-.359.144-.72.287-1.087.431-.368.144-.747.26-1.114.377-.251.08-.502.153-.756.228-1.007.28-2.03.499-3.064.656h-.027a4.048 4.048 0 0 1-.477.054.011.011 0 0 1-.019 0 9.12 9.12 0 0 1-.764.08h-.019c-.134 0-.27.037-.404.046-.64.046-1.276.073-1.915.073-.441 0-.89 0-1.34-.037a.989.989 0 0 1-.163-.018c-.08.005-.161.005-.242 0-.26-.018-.52-.045-.774-.064a17.988 17.988 0 0 1-2.174-.315 6.044 6.044 0 0 1-.529-.107c-.178-.043-.358-.08-.53-.117a1.322 1.322 0 0 1-.18-.045 16.248 16.248 0 0 1-.9-.242c-.351-.098-.684-.208-1.043-.324a6.346 6.346 0 0 1-.511-.18c-.16-.065-.334-.126-.502-.19a23.608 23.608 0 0 1-1.978-.863 23.947 23.947 0 0 1-1.95-1.069l25.635-.009z"/>
        <path fill="#151515" fill-rule="nonzero" d="M24.943 49.858c-.505 0-.948-.011-1.352-.036a1.436 1.436 0 0 1-.187-.02 1.749 1.749 0 0 1-.228 0l-.404-.03-.363-.03a15.543 15.543 0 0 1-1.121-.128 22.391 22.391 0 0 1-1.083-.192 6.498 6.498 0 0 1-.54-.11l-.3-.065-.228-.05a1.142 1.142 0 0 1-.16-.04c-.333-.08-.635-.162-.936-.253-.35-.098-.685-.208-1.048-.324a6.69 6.69 0 0 1-.523-.185 7.236 7.236 0 0 1-.312-.116l-.188-.071a27.4 27.4 0 0 1-1.993-.88c-.66-.319-1.338-.684-1.97-1.08l-.685-.415h27.237l-.685.416a26.171 26.171 0 0 1-3.196 1.65c-.365.147-.726.29-1.096.434-.37.144-.756.265-1.128.384-.253.082-.507.153-.76.228a26.19 26.19 0 0 1-3.094.662h-.061c-.125.024-.25.04-.377.048h-.12c-.243.034-.487.06-.738.078-.083 0-.144.014-.206.02-.061.007-.146.019-.228.023-.687.06-1.317.082-1.927.082zm-1.5-.502c.054.01.108.015.162.018 1.079.057 2.16.045 3.237-.036.064 0 .126-.014.188-.02.061-.007.146-.019.228-.023.253-.016.482-.042.712-.074h.048l.114-.016c.124 0 .247-.025.366-.045h.066a26.121 26.121 0 0 0 3.004-.649c.25-.07.498-.141.747-.228.368-.116.74-.242 1.107-.374.368-.133.722-.286 1.083-.43.83-.36 1.64-.76 2.429-1.203H12.96c.402.229.81.44 1.226.644.649.315 1.308.603 1.96.854l.189.073c.102.039.205.08.303.112.167.064.334.125.507.178.354.119.685.228 1.039.322.297.089.589.169.888.24.053.017.107.03.162.04l.244.056.297.063c.183.046.347.08.52.108.368.073.713.134 1.07.19.417.06.762.1 1.088.123l.368.03.404.031c.071.01.143.014.215.014l.002.002z"/>
        <path fill="#61A695" d="M12.126 46.057c.63.386 1.285.747 1.95 1.069a9.293 9.293 0 0 1-.432-.208l-.457-.229c-.15-.075-.242-.134-.367-.198a30.146 30.146 0 0 1-.738-.432l.044-.002z"/>
        <path fill="#151515" d="M13.986 47.331a7.814 7.814 0 0 1-.443-.212c-.148-.076-.312-.156-.456-.229l-.18-.095-.179-.096-.057-.032c-.228-.137-.477-.274-.698-.409l-.685-.416h.856l.089.035c.619.381 1.27.737 1.931 1.06l-.178.394z"/>
        <path fill="#61A695" d="M14.075 47.126c.646.315 1.304.602 1.978.863a20.247 20.247 0 0 1-1.978-.863z"/>
        <path fill="#151515" d="M15.982 48.199a20.587 20.587 0 0 1-2-.873l.198-.401c.649.315 1.309.602 1.96.854l-.158.42z"/>
        <path fill="#61A695" d="M23.44 49.58c.054.01.108.017.163.018-.135 0-.27-.01-.404-.027.08.007.16.01.242.009z"/>
        <path fill="#151515" d="M23.603 49.822c-.145 0-.29-.01-.434-.03l.055-.456c.076.006.152.006.228 0h.039c.04.008.082.014.123.016l-.011.47z"/>
        <path fill="#61A695" d="M31.63 48.726c.251-.073.502-.144.756-.228-.233.088-.47.164-.71.228a24.43 24.43 0 0 1-3.11.655 26.105 26.105 0 0 0 3.064-.655z"/>
        <path fill="#151515" d="M28.596 49.605l-.066-.445a25.742 25.742 0 0 0 3.038-.65c.25-.072.498-.142.747-.23l.148.425a7.4 7.4 0 0 1-.73.229c-1.03.291-2.078.515-3.137.671z"/>
        <path fill="#61A695" d="M37.804 46.057c-.242.153-.487.297-.738.432-.25.134-.53.287-.808.431-.543.287-1.101.546-1.671.774a25.785 25.785 0 0 0 3.173-1.635l.044-.002z"/>
        <path fill="#151515" d="M34.669 47.902l-.171-.413a25.699 25.699 0 0 0 3.146-1.621l.055-.032h.842l-.614.415c-.247.155-.495.302-.751.438-.213.126-.439.24-.671.361l-.142.073c-.55.29-1.116.55-1.694.779z"/>
        <path fill="#666" d="M49.436 28.187v.018a19.744 19.744 0 0 1-.26 1.599c-.168.859-.384 1.708-.646 2.543a26.18 26.18 0 0 1-.656 1.806H2.014a23.66 23.66 0 0 1-1.557-5.966h.596v.432h4.349c.217-.12.42-.264.603-.432h.755l-.139.432h2.35l.097-.432h2.895l.09.432h5.043v-.432h3.758l-.018.432h2.283v-.432H25.5v.432h2.381v-.432h.457l-.126.432h2.229l.125-.432h2.948l.125.432h2.283l-.125-.432h.646l-.208.432h2.607l.117-.432h2.055v.432h2.185c.21-.11.398-.256.557-.432h2.511v.432h2.301v-.432h.868z"/>
        <path fill="#151515" fill-rule="nonzero" d="M48.023 34.372H1.863l-.057-.14a23.856 23.856 0 0 1-1.578-6.017l-.032-.254h1.085v.432h4.061c.183-.105.354-.23.51-.372l.064-.06h1.141l-.135.432h1.861l.098-.432h3.265l.09.432h4.636v-.432h4.215l-.019.432h1.827v-.432h2.826v.432h1.932v-.432h.99l-.125.432h1.76l.126-.432h3.285l.126.432h1.801l-.125-.432h1.304l-.208.432h2.077l.117-.432h2.459v.432h1.91c.17-.096.325-.218.457-.361l.067-.07h2.837v.43h1.852v-.43h1.313v.241a18.308 18.308 0 0 1-.265 1.637c-.17.867-.388 1.724-.653 2.566-.212.658-.43 1.254-.662 1.827l-.073.14zm-45.859-.456h45.553c.208-.519.402-1.06.594-1.651.259-.825.472-1.663.639-2.512.098-.47.173-.913.228-1.34h-.386v.432h-2.74v-.432h-2.196a2.14 2.14 0 0 1-.552.409l-.1.023h-2.42v-.432h-1.658l-.117.432h-5.525l-.126-.432h-2.611l-.126.432h-5.345v-.432h-1.938v.432H20.6l.019-.432h-3.3v.432h-5.447l-.089-.432H9.25l-.098.432H6.32l.134-.432H6.09c-.178.155-.373.29-.58.404l-.107.028H.812v-.432H.706c.26 1.89.75 3.74 1.46 5.51v-.007z"/>
        <path fill="#61A695" d="M14.384 28.187l.125.432h.215l.018-.432z"/>
        <path fill="#151515" d="M14.93 28.842h-.601l-.256-.879h.893z"/>
        <path fill="#666" d="M47.872 34.146c-.107.279-.228.548-.351.827a22.603 22.603 0 0 1-1.87 3.44c-.233.35-.487.72-.747 1.078-.144.208-.297.404-.457.603h-39c-.25-.306-.486-.63-.71-.952a18.07 18.07 0 0 1-.988-1.5 25.19 25.19 0 0 1-1.644-3.263 2.23 2.23 0 0 1-.089-.228l45.856-.005z"/>
        <path fill="#151515" fill-rule="nonzero" d="M44.457 40.322H5.34l-.068-.082c-.277-.336-.53-.685-.722-.968a18.54 18.54 0 0 1-.995-1.512 25.342 25.342 0 0 1-1.66-3.285 2.6 2.6 0 0 1-.096-.251l-.098-.295h46.498l-.12.306c-.109.283-.227.555-.355.838a22.65 22.65 0 0 1-1.217 2.395c-.228.363-.436.726-.671 1.08-.236.354-.489.724-.752 1.087-.141.203-.292.4-.445.596l-.068.086-.114.005zm-38.902-.457h38.79a28.456 28.456 0 0 0 1.119-1.58 22.146 22.146 0 0 0 1.852-3.409l.227-.51H2.338a24.868 24.868 0 0 0 1.598 3.155c.31.506.621 1.002.977 1.484.187.264.402.573.64.867l.002-.007z"/>
        <path fill="#666" d="M44.457 40.096c-.478.612-.98 1.187-1.5 1.753-.242.251-.478.496-.72.729a24.788 24.788 0 0 1-4.477 3.48H12.126a25.096 25.096 0 0 1-5.635-4.702c-.37-.4-.718-.82-1.044-1.258l39.01-.002z"/>
        <path fill="#151515" fill-rule="nonzero" d="M37.822 46.28h-25.76l-.053-.031a25.329 25.329 0 0 1-5.687-4.742 15.568 15.568 0 0 1-1.057-1.276l-.263-.359h39.914l-.284.363c-.429.55-.913 1.112-1.513 1.767a25.03 25.03 0 0 1-.729.738 25.06 25.06 0 0 1-4.516 3.509l-.052.032zm-25.635-.456h25.51a24.61 24.61 0 0 0 4.38-3.424c.229-.229.457-.457.702-.71.47-.512.86-.96 1.21-1.386H5.902c.228.278.456.566.753.88a24.886 24.886 0 0 0 5.534 4.647l-.002-.007z"/>
        <path fill="#FFF" fill-rule="nonzero" stroke="#151515" stroke-linejoin="round" stroke-width=".5" d="M3.352 23.306l-.046-1.285H6.62v-1.978h-5.3l-.18 5.215-.098 2.93v.43h4.359c.217-.118.42-.263.603-.43a3.169 3.169 0 0 0 1.006-2.455c0-2.516-3.66-2.427-3.66-2.427zm-.073 3.74v-1.87s1.627 0 1.456.97c-.171.97-1.454.9-1.454.9h-.002zM14.384 28.187l-2.258-8.144H9.438L6.76 28.187l-.139.432h2.35l.097-.432.2-.961 2.51.046.19.913.09.431h2.44l-.114-.429zm-4.505-3.011l.8-3.03.611 3.02-1.411.01zM20.776 22.427c-.093-3.228-5.74-2.564-5.74-2.564l-.305 8.324-.019.432h2.384v-.432l-.028-2.372s3.802-.171 3.708-3.388zm-3.712 1.24v-1.861s1.637 0 1.457.97c-.18.97-1.453.89-1.453.89h-.004z"/>
        <path fill="#FFF" d="M27.881 19.81v8.809H25.5v-3.443h-2.338l-.043 3.011-.01.432h-2.273l.016-.432.28-8.376h2.21v3.235h2.247V19.81z"/>
        <path fill="#151515" fill-rule="nonzero" d="M27.881 28.845H25.5a.228.228 0 0 1-.228-.229v-3.214h-1.89l-.05 3.224a.228.228 0 0 1-.23.228H20.82a.228.228 0 0 1-.229-.228l.019-.432.278-8.377c0-.126.102-.228.228-.228h2.21c.127 0 .229.102.229.228v3.014h1.797v-3.02c0-.127.102-.229.228-.229h2.283c.126 0 .228.102.228.229v8.808a.228.228 0 0 1-.21.226zm-2.157-.457h1.931v-8.354h-1.842v3.012a.228.228 0 0 1-.229.228h-2.246a.228.228 0 0 1-.228-.228v-3.012h-1.76l-.28 8.359h1.827l.05-3.222c0-.126.103-.228.229-.228h2.338c.126 0 .228.102.228.228l-.018 3.217z"/>
        <path fill="#FFF" fill-rule="nonzero" stroke="#151515" stroke-linejoin="round" stroke-width=".5" d="M35.801 28.187l-2.283-8.376h-2.644l-2.525 8.376-.125.432h2.228l.126-.432.296-1.007h2.39l.261 1.007.126.432h2.283l-.133-.432zM31.28 24.98l.792-2.833.62 2.822-1.412.011z"/>
        <path fill="#FFF" d="M41.247 19.81l-2.284 8.377-.116.432h-2.605l.205-.432.882-1.842-2.923-6.534h2.482l1.356 2.965.676-2.965z"/>
        <path fill="#151515" fill-rule="nonzero" d="M38.847 28.845H36.24a.228.228 0 0 1-.203-.322l1.043-2.18-2.88-6.441a.228.228 0 0 1 .206-.318h2.482c.088 0 .168.051.206.13l1.08 2.364.527-2.32a.228.228 0 0 1 .228-.176h2.329a.228.228 0 0 1 .217.283l-2.411 8.813a.228.228 0 0 1-.217.167zm-2.251-.457h2.078l2.283-8.358h-1.854l-.64 2.801a.228.228 0 0 1-.196.174.228.228 0 0 1-.228-.13l-1.297-2.836h-1.99l2.782 6.217c.028.06.028.129 0 .19l-.938 1.942z"/>
        <path fill="#FFF" d="M48.573 19.56v9.059h-2.301v-.432l-.037-6.607-1.456.046-.046 4.673a4.489 4.489 0 0 1-.98 1.888 2.016 2.016 0 0 1-.557.432h-2.185v-.432l.055-1.662s1.493.44 1.493-1.671v-5.295h6.014z"/>
        <path fill="#151515" fill-rule="nonzero" d="M48.573 28.845h-2.301a.228.228 0 0 1-.229-.229v-.431l-.034-6.374-1.011.031-.044 4.46c-.17.757-.529 1.459-1.043 2.04a2.212 2.212 0 0 1-.619.478.228.228 0 0 1-.1.022h-2.185a.228.228 0 0 1-.228-.228l.063-2.096a.228.228 0 0 1 .288-.207.961.961 0 0 0 .763-.13c.287-.229.44-.686.44-1.327v-5.295c0-.126.103-.228.229-.228h6.004c.126 0 .229.102.229.228v9.06a.228.228 0 0 1-.222.226zm-2.075-.457h1.851v-8.605h-5.557v5.069c0 .81-.21 1.37-.625 1.687-.253.183-.564.27-.875.242l-.05 1.61h1.909c.17-.096.324-.218.456-.361.44-.514.754-1.124.914-1.781l.038-4.628c0-.126.103-.228.229-.228l1.456-.046c.06-.005.12.017.162.062.043.042.068.1.069.16l.023 6.82z"/>
    </g>
</svg>
