<svg xmlns="http://www.w3.org/2000/svg" width="50" height="50" viewBox="0 0 50 50">
    <g fill="none" fill-rule="evenodd">
        <path fill="#FFF" d="M49.66 24.934a23.516 23.516 0 0 1-.486 4.872c-.16.861-.376 1.71-.647 2.543-.277.895-.61 1.772-.997 2.626a21.817 21.817 0 0 1-1.215 2.372c-.208.368-.422.728-.655 1.078-.233.349-.486.719-.747 1.068a25.256 25.256 0 0 1-1.698 2.085c-.09.098-.172.19-.26.278-.229.242-.457.496-.72.728a22.406 22.406 0 0 1-2.265 1.96c-.242.198-.486.376-.737.547a24.2 24.2 0 0 1-3.425 2.032 24.658 24.658 0 0 1-4.18 1.598c-1.013.28-2.043.5-3.082.656-.108.018-.217.027-.325.036-.054 0-.107 0-.162.019h-.089c-.228.027-.456.045-.685.073h-.107c-.215.027-.422.036-.64.054-.476.028-.942.055-1.428.055h-.395c-.352 0-.685-.018-1.044-.036a1.893 1.893 0 0 1-.228-.019c-.08 0-.162 0-.242-.018-.242 0-.457-.027-.685-.055h-.09c-.079 0-.152 0-.227-.018-.208-.018-.414-.046-.612-.07l-.229-.028a23.99 23.99 0 0 1-3.513-.783 24.516 24.516 0 0 1-7.183-3.523 24.014 24.014 0 0 1-3.993-3.511 3.449 3.449 0 0 1-.18-.19 24.918 24.918 0 0 1-1.754-2.21 20.89 20.89 0 0 1-.988-1.51 24.943 24.943 0 0 1-3.519-12.71c0-.584.019-1.159.071-1.725C1.201 10.299 11.912.275 24.852.228h.198a24.674 24.674 0 0 1 11.82 3.057l.367.199a24.982 24.982 0 0 1 4.637 3.452 24.658 24.658 0 0 1 7.786 17.998z"/>
        <path fill="#151515" fill-rule="nonzero" d="M25.114 49.868h-.395c-.345 0-.685-.016-1.027-.035a2.237 2.237 0 0 1-.267-.02h-.24c-.228 0-.457-.028-.685-.055l-.053-.228-.015.228h-.254a13.372 13.372 0 0 1-.616-.073l-.229-.025a24.721 24.721 0 0 1-10.801-4.345 1.208 1.208 0 0 1-.13-.089l-.05-.039a24.27 24.27 0 0 1-3.838-3.438c-.06-.06-.126-.126-.183-.192a25.217 25.217 0 0 1-1.765-2.228c-.365-.505-.685-1.03-.998-1.523A25.167 25.167 0 0 1 0 24.934c0-.67.023-1.226.073-1.747C.954 10.242 11.838.055 24.852 0h.198a25.05 25.05 0 0 1 11.936 3.084l.368.197a25.276 25.276 0 0 1 4.685 3.486 24.724 24.724 0 0 1 7.854 18.167 23.85 23.85 0 0 1-.491 4.918 20.27 20.27 0 0 1-.66 2.568c-.28.903-.617 1.787-1.007 2.648-.36.823-.769 1.623-1.226 2.395-.228.402-.443.76-.662 1.09a27.24 27.24 0 0 1-2.466 3.182c-.105.117-.182.203-.27.288l-.138.146c-.19.199-.382.4-.585.589a22.632 22.632 0 0 1-2.283 1.975 8.116 8.116 0 0 1-.747.555 24.578 24.578 0 0 1-3.452 2.054 25.057 25.057 0 0 1-4.217 1.624 26.589 26.589 0 0 1-3.111.662c-.105.018-.215.027-.325.036h-.159l-.057-.228v.228h-.078l-.288.032-.358.04h-.135a8.314 8.314 0 0 1-.413.038l-.206.016c-.495.05-.954.078-1.445.078zM24.852.457C12.073.502 1.386 10.502.52 23.224c-.048.52-.064 1.055-.064 1.71a24.715 24.715 0 0 0 3.49 12.593c.297.482.621 1 .978 1.494a24.872 24.872 0 0 0 1.737 2.191c.053.062.112.121.171.18a23.874 23.874 0 0 0 3.774 3.384l.06.044c.032.025.065.049.1.07a24.345 24.345 0 0 0 7.13 3.512 23.65 23.65 0 0 0 3.482.774l.228.025c.201.027.404.055.608.07h.239l.053.229.016-.228c.249.027.456.045.685.054h.258a1.7 1.7 0 0 0 .2.016c.375.019.706.037 1.044.037h.404c.477 0 .932-.025 1.413-.053l.208-.015c.14 0 .276-.019.418-.037h.137c.096-.014.228-.025.34-.039l.308-.032h.251c.128-.011.229-.02.322-.036a26.084 26.084 0 0 0 3.06-.651 24.607 24.607 0 0 0 4.141-1.598 24.153 24.153 0 0 0 3.395-2.014c.254-.171.489-.347.726-.539a22.301 22.301 0 0 0 2.25-1.945c.202-.187.387-.381.57-.573l.144-.15c.084-.083.155-.163.228-.25a25.279 25.279 0 0 0 1.706-2.09c.26-.35.5-.706.742-1.065.212-.317.424-.666.646-1.061.448-.76.85-1.546 1.203-2.354.383-.846.713-1.714.989-2.6.268-.823.482-1.662.641-2.512.328-1.59.49-3.209.482-4.831a24.279 24.279 0 0 0-7.713-17.84 24.804 24.804 0 0 0-4.595-3.425l-.368-.19A24.596 24.596 0 0 0 25.05.457h-.198z"/>
        <path fill="#666" d="M18.409 23.208V48.61h-.576a24.516 24.516 0 0 1-7.182-3.523 2.16 2.16 0 0 1-.18-.126 24.014 24.014 0 0 1-3.802-3.408 3.449 3.449 0 0 1-.18-.19 24.918 24.918 0 0 1-1.754-2.21 20.89 20.89 0 0 1-.988-1.51 24.943 24.943 0 0 1-3.519-12.71c0-.584.019-1.159.071-1.725h18.11z"/>
        <path fill="#151515" fill-rule="nonzero" d="M18.632 48.833h-.865a24.712 24.712 0 0 1-7.246-3.554 1.208 1.208 0 0 1-.13-.09l-.05-.038a24.27 24.27 0 0 1-3.839-3.439c-.06-.059-.125-.125-.182-.191a25.217 25.217 0 0 1-1.765-2.229c-.366-.504-.685-1.03-.998-1.523A25.167 25.167 0 0 1 0 24.934c0-.67.023-1.226.073-1.747l.018-.203h18.541v25.85zm-.767-.456h.318V23.432H.503c-.037.456-.053.933-.053 1.502a24.715 24.715 0 0 0 3.49 12.593c.297.482.622 1 .978 1.494a24.872 24.872 0 0 0 1.737 2.191c.053.062.112.121.171.18a23.874 23.874 0 0 0 3.774 3.384l.06.044c.032.025.065.049.1.07a24.331 24.331 0 0 0 7.105 3.494v-.007z"/>
        <path fill="#666" d="M49.66 24.934a23.516 23.516 0 0 1-.486 4.872c-.16.861-.376 1.71-.647 2.543-.277.895-.61 1.772-.997 2.626a21.817 21.817 0 0 1-1.215 2.372c-.208.368-.422.728-.655 1.078-.233.349-.486.719-.747 1.068a25.256 25.256 0 0 1-1.698 2.085c-.09.098-.172.19-.26.278-.229.242-.457.496-.72.728a22.406 22.406 0 0 1-2.265 1.96c-.242.198-.486.376-.737.547a24.2 24.2 0 0 1-3.425 2.032h-3.45V6.93h9.519a24.658 24.658 0 0 1 7.783 18.005z"/>
        <path fill="#151515" fill-rule="nonzero" d="M35.86 47.352h-3.728V6.712h9.834l.064.062a24.724 24.724 0 0 1 7.854 18.167 23.85 23.85 0 0 1-.491 4.917 20.27 20.27 0 0 1-.651 2.562c-.28.903-.617 1.787-1.007 2.648-.36.823-.769 1.623-1.226 2.395-.228.402-.443.76-.662 1.09a27.24 27.24 0 0 1-2.466 3.182c-.105.117-.182.203-.27.288l-.138.146c-.19.199-.382.4-.585.589a22.632 22.632 0 0 1-2.283 1.975 8.116 8.116 0 0 1-.747.555 24.578 24.578 0 0 1-3.452 2.054l-.045.01zm-3.278-.457h3.176a24.135 24.135 0 0 0 3.347-1.99c.253-.172.489-.348.726-.54a22.301 22.301 0 0 0 2.249-1.945c.203-.187.388-.381.57-.573l.145-.15c.084-.083.155-.163.228-.25a25.279 25.279 0 0 0 1.705-2.09c.26-.35.5-.706.742-1.065.213-.317.425-.666.646-1.061.45-.76.851-1.546 1.204-2.354.383-.846.713-1.714.988-2.6.269-.823.483-1.662.642-2.512.327-1.59.489-3.209.482-4.831A24.274 24.274 0 0 0 41.78 7.155h-9.199v39.74z"/>
        <path fill="#666" d="M43.215 14.039v27.54c-.09.1-.172.19-.26.28-.229.241-.457.495-.72.728a22.406 22.406 0 0 1-2.265 1.959c-.242.198-.486.376-.737.548a24.767 24.767 0 0 1-7.605 3.639c-1.013.28-2.043.5-3.082.655-.108.018-.217.028-.325.037-.054 0-.107 0-.162.018h-.089c-.228.027-.456.046-.685.073h-.107c-.215.027-.422.037-.64.055-.476.027-.942.055-1.428.055h-.395c-.352 0-.685-.019-1.044-.037a1.893 1.893 0 0 1-.228-.018c-.08 0-.162 0-.242-.018-.242 0-.457-.028-.685-.055h-.09c-.079 0-.152 0-.227-.019-.208-.018-.414-.045-.612-.07l-.229-.028a24.452 24.452 0 0 1-10.696-4.306 24.014 24.014 0 0 1-3.993-3.523V14.04h36.546z"/>
        <path fill="#151515" fill-rule="nonzero" d="M25.114 49.868h-.395c-.345 0-.685-.016-1.027-.035a2.237 2.237 0 0 1-.267-.02h-.24c-.228 0-.457-.028-.685-.055l-.053-.228-.015.228h-.254a13.372 13.372 0 0 1-.616-.073l-.229-.025a24.833 24.833 0 0 1-10.801-4.338 1.208 1.208 0 0 1-.13-.09l-.05-.038a24.27 24.27 0 0 1-3.838-3.438l-.057-.064V13.815h36.986V41.67l-.06.064c-.104.116-.182.203-.269.288l-.14.146c-.189.198-.38.4-.584.589a22.632 22.632 0 0 1-2.283 1.975 8.116 8.116 0 0 1-.746.554 24.909 24.909 0 0 1-7.67 3.672 26.59 26.59 0 0 1-3.111.662 3.703 3.703 0 0 1-.324.036h-.16l-.057-.228v.228h-.078l-.287.032-.359.039h-.135a8.314 8.314 0 0 1-.413.039l-.205.016c-.498.06-.957.087-1.448.087zM6.895 41.466a23.826 23.826 0 0 0 3.708 3.31l.06.044c.031.025.065.049.1.07a24.43 24.43 0 0 0 10.616 4.279l.228.025c.201.027.404.055.608.07h.239l.053.23.016-.23c.249.028.456.047.685.056h.258a1.7 1.7 0 0 0 .2.016c.375.018.706.036 1.044.036h.404c.477 0 .932-.025 1.413-.052l.208-.016c.14 0 .276-.019.418-.037h.137c.096-.014.228-.025.34-.039l.308-.032h.251c.128-.011.229-.02.322-.036a26.084 26.084 0 0 0 3.06-.65 24.461 24.461 0 0 0 7.534-3.608c.253-.171.489-.347.726-.539a22.301 22.301 0 0 0 2.249-1.945c.203-.187.388-.381.57-.573l.145-.15c.07-.072.132-.138.198-.211v-27.22H6.895v27.202z"/>
        <path fill="#FFF" d="M18.116 18.422h2.199v5.511h-2.199z"/>
        <path fill="#151515" fill-rule="nonzero" d="M20.548 24.158H17.89v-5.962h2.658v5.962zm-2.199-.457h1.742v-5.055h-1.75l.008 5.055z"/>
        <path fill="#FFF" d="M20.315 18.422h2.199v5.511h-2.199z"/>
        <path fill="#151515" fill-rule="nonzero" d="M22.74 24.158H20.09v-5.962h2.649v5.962zM20.54 23.7h1.749v-5.055h-1.742l-.007 5.055z"/>
        <path fill="#FFF" d="M22.514 18.422h2.199v5.511h-2.199z"/>
        <path fill="#151515" fill-rule="nonzero" d="M24.938 24.158H22.29v-5.962h2.648v5.962zM22.74 23.7h1.749v-5.055h-1.75v5.055z"/>
        <path fill="#FFF" d="M22.409 20.15h2.303"/>
        <path fill="#151515" d="M22.409 19.927h2.306v1h-2.306z"/>
        <path fill="#FFF" d="M27.959 18.425h2.201v5.505h-2.201z"/>
        <path fill="#151515" fill-rule="nonzero" d="M30.386 24.155h-2.65v-5.954h2.65v5.954zm-2.201-.456h1.753v-5.05h-1.753v5.05z"/>
        <path fill="#FFF" d="M30.16 18.422h2.199v5.511H30.16z"/>
        <path fill="#151515" fill-rule="nonzero" d="M32.582 24.158h-2.648v-5.962h2.648v5.962zm-2.198-.457h1.748v-5.055h-1.748v5.055z"/>
        <path fill="#FFF" d="M30.053 20.15h2.305"/>
        <path fill="#151515" d="M30.053 19.927h2.306v1h-2.306z"/>
        <path fill="#FFF" d="M35.568 18.425h2.201v5.505h-2.201z"/>
        <path fill="#151515" fill-rule="nonzero" d="M37.995 24.155h-2.65v-5.954h2.65v5.954zm-2.2-.456h1.753v-5.05h-1.753v5.05z"/>
        <path fill="#FFF" d="M37.769 18.422h2.199v5.511h-2.199z"/>
        <path fill="#151515" fill-rule="nonzero" d="M40.183 24.158h-2.649v-5.962h2.649v5.962zm-2.199-.457h1.749v-5.055h-1.749v5.055z"/>
        <path fill="#FFF" d="M37.662 20.15h2.306"/>
        <path fill="#151515" d="M37.662 19.927h2.306v1h-2.306z"/>
        <path fill="#FFF" d="M10.47 18.425h2.201v5.505H10.47z"/>
        <path fill="#151515" fill-rule="nonzero" d="M12.897 24.155h-2.65v-5.954h2.65v5.954zm-2.2-.456h1.753v-5.05h-1.754v5.05z"/>
        <path fill="#FFF" d="M12.671 18.422h2.199v5.511h-2.199z"/>
        <path fill="#151515" fill-rule="nonzero" d="M15.096 24.158h-2.65v-5.962h2.648l.002 5.962zm-2.199-.457h1.75v-5.055h-1.752l.002 5.055z"/>
        <path fill="#FFF" d="M12.564 20.15h2.306"/>
        <path fill="#151515" d="M12.564 19.927h2.306v1h-2.306z"/>
        <path fill="#FFF" d="M18.116 28.45h2.199v5.511h-2.199z"/>
        <path fill="#151515" fill-rule="nonzero" d="M20.548 34.187H17.89v-5.961h2.658v5.961zm-2.199-.456h1.742v-5.057h-1.75l.008 5.057z"/>
        <path fill="#FFF" d="M20.315 28.45h2.199v5.511h-2.199z"/>
        <path fill="#151515" fill-rule="nonzero" d="M22.74 34.187H20.09v-5.961h2.649v5.961zm-2.199-.456h1.749v-5.057h-1.742l-.007 5.057z"/>
        <path fill="#FFF" d="M22.514 28.45h2.199v5.511h-2.199z"/>
        <path fill="#151515" fill-rule="nonzero" d="M24.938 34.187H22.29v-5.961h2.648v5.961zm-2.198-.456h1.749v-5.057h-1.75v5.057z"/>
        <path fill="#FFF" d="M22.409 30.178h2.303"/>
        <path fill="#151515" d="M22.409 29.954h2.306v1h-2.306z"/>
        <path fill="#FFF" d="M27.959 28.452h2.201v5.505h-2.201z"/>
        <path fill="#151515" fill-rule="nonzero" d="M30.386 34.183h-2.65v-5.955h2.65v5.955zm-2.201-.457h1.753v-5.05h-1.753v5.05z"/>
        <path fill="#FFF" d="M30.16 28.45h2.199v5.511H30.16z"/>
        <path fill="#151515" fill-rule="nonzero" d="M32.582 34.187h-2.648v-5.961h2.648v5.961zm-2.198-.456h1.748v-5.057h-1.748v5.057z"/>
        <path fill="#FFF" d="M30.053 30.178h2.305"/>
        <path fill="#151515" d="M30.053 29.954h2.306v1h-2.306z"/>
        <path fill="#FFF" d="M35.568 28.452h2.201v5.505h-2.201z"/>
        <path fill="#151515" fill-rule="nonzero" d="M37.995 34.183h-2.65v-5.955h2.65v5.955zm-2.2-.457h1.753v-5.05h-1.753v5.05z"/>
        <path fill="#FFF" d="M37.769 28.45h2.199v5.511h-2.199z"/>
        <path fill="#151515" fill-rule="nonzero" d="M40.183 34.187h-2.649v-5.961h2.649v5.961zm-2.199-.456h1.749v-5.057h-1.749v5.057z"/>
        <path fill="#FFF" d="M37.662 30.178h2.306"/>
        <path fill="#151515" d="M37.662 29.954h2.306v1h-2.306z"/>
        <path fill="#FFF" d="M10.47 28.452h2.201v5.505H10.47z"/>
        <path fill="#151515" fill-rule="nonzero" d="M12.897 34.183h-2.65v-5.955h2.65v5.955zm-2.2-.457h1.753v-5.05h-1.754v5.05z"/>
        <path fill="#FFF" d="M12.671 28.45h2.199v5.511h-2.199z"/>
        <path fill="#151515" fill-rule="nonzero" d="M15.096 34.187h-2.65v-5.961h2.648l.002 5.961zm-2.199-.456h1.75v-5.057h-1.752l.002 5.057z"/>
        <path fill="#FFF" d="M12.564 30.178h2.306"/>
        <path fill="#151515" d="M12.564 29.954h2.306v1h-2.306z"/>
        <path fill="#FFF" d="M18.116 39.578h2.199v5.511h-2.199z"/>
        <path fill="#151515" fill-rule="nonzero" d="M20.548 45.315H17.89v-5.961h2.658v5.961zm-2.199-.457h1.742v-5.054h-1.75l.008 5.054z"/>
        <path fill="#FFF" d="M20.315 39.578h2.199v5.511h-2.199z"/>
        <path fill="#151515" fill-rule="nonzero" d="M22.74 45.315H20.09v-5.961h2.649v5.961zm-2.199-.457h1.749v-5.054h-1.742l-.007 5.054z"/>
        <path fill="#FFF" d="M22.514 39.578h2.199v5.511h-2.199z"/>
        <path fill="#151515" fill-rule="nonzero" d="M24.938 45.315H22.29v-5.961h2.648v5.961zm-2.198-.457h1.749v-5.054h-1.75v5.054z"/>
        <path fill="#FFF" d="M22.409 41.306h2.303"/>
        <path fill="#151515" d="M22.409 41.082h2.306v1h-2.306z"/>
        <path fill="#FFF" d="M27.959 39.58h2.201v5.505h-2.201z"/>
        <path fill="#151515" fill-rule="nonzero" d="M30.386 45.31h-2.65v-5.954h2.65v5.955zm-2.201-.456h1.753v-5.048h-1.753v5.048z"/>
        <path fill="#FFF" d="M30.16 39.578h2.199v5.511H30.16z"/>
        <path fill="#151515" fill-rule="nonzero" d="M32.582 45.315h-2.648v-5.961h2.648v5.961zm-2.198-.457h1.748v-5.054h-1.748v5.054z"/>
        <path fill="#FFF" d="M30.053 41.306h2.305"/>
        <path fill="#151515" d="M30.053 41.082h2.306v1h-2.306z"/>
        <path fill="#FFF" d="M35.568 39.58h2.201v5.505h-2.201z"/>
        <path fill="#151515" fill-rule="nonzero" d="M37.995 45.31h-2.65v-5.954h2.65v5.955zm-2.2-.456h1.753v-5.048h-1.753v5.048z"/>
        <path fill="#FFF" d="M39.97 39.575v4.97c-.242.2-.486.377-.737.549h-1.466v-5.519h2.203z"/>
        <path fill="#151515" fill-rule="nonzero" d="M39.304 45.32h-1.758v-5.968h2.65v5.301l-.082.068c-.246.201-.493.384-.753.56l-.057.039zm-1.309-.457h1.172c.198-.137.39-.279.582-.431v-4.633h-1.754v5.064z"/>
        <path fill="#FFF" d="M37.662 41.306h2.306"/>
        <path fill="#151515" d="M37.662 41.082h2.306v1h-2.306z"/>
        <path fill="#FFF" d="M12.674 39.584v5.5H10.65a2.16 2.16 0 0 1-.18-.125v-5.375h2.203z"/>
        <path fill="#151515" fill-rule="nonzero" d="M12.897 45.31h-2.306l-.05-.03a1.443 1.443 0 0 1-.148-.1l-.146-.105v-5.707h2.65v5.943zm-2.182-.456h1.732v-5.046h-1.75v5.037l.018.009z"/>
        <path fill="#FFF" d="M12.671 39.578h2.199v5.511h-2.199z"/>
        <path fill="#151515" fill-rule="nonzero" d="M15.096 45.315h-2.65v-5.961h2.648l.002 5.961zm-2.199-.457h1.75v-5.054h-1.752l.002 5.054z"/>
        <path fill="#FFF" d="M12.564 41.306h2.306"/>
        <path fill="#151515" d="M12.564 41.082h2.306v1h-2.306z"/>
        <path fill="#FFF" d="M22.516 49.418v.098h-.09c-.079 0-.152 0-.227-.018-.208-.019-.414-.046-.612-.071l.929-.01z"/>
        <path fill="#151515" d="M22.74 49.742h-.3l-.148-.011h-.125a13.372 13.372 0 0 1-.617-.073l.03-.457h1.16v.541z"/>
        <path fill="#FFF" d="M28.224 49.427c-.055 0-.108 0-.162.018h-.09v-.027l.252.009z"/>
        <path fill="#151515" d="M27.963 49.678h-.228v-.457l.228-.027h.26l.037.457h-.162v-.014l-.052.02z"/>
        <path fill="#666" d="M17.884 10.941h7.062v3.103h-7.062z"/>
        <path fill="#151515" fill-rule="nonzero" d="M25.171 14.267H17.66v-3.552h7.511v3.552zm-7.061-.456h6.62v-2.647h-6.62v2.647z"/>
    </g>
</svg>
