<svg xmlns="http://www.w3.org/2000/svg" width="50" height="50" viewBox="0 0 50 50">
    <g fill="none" fill-rule="evenodd">
        <path fill="#151515" d="M37.242 3.48l-.368-.201A24.68 24.68 0 0 0 25.05.229h-.2A24.705 24.705 0 0 0 3.75 37.643c.313.514.633 1.018.986 1.507a24.774 24.774 0 0 0 16.61 10.237c.28.04.56.072.842.096l.24.025c.256.025.514.048.779.064.08 0 .16 0 .24.016a21.567 21.567 0 0 0 1.502.048h.164c.482 0 .954-.025 1.427-.048.217-.016.425-.032.642-.057h.105c.255-.025.504-.048.762-.08.16-.016.32-.032.482-.057a24.692 24.692 0 0 0 13.705-6.813c.25-.228.482-.482.722-.728a24.989 24.989 0 0 0 1.954-2.356c.256-.354.505-.713.747-1.073.242-.361.456-.713.657-1.073.45-.767.854-1.559 1.21-2.373a23.65 23.65 0 0 0 1.003-2.63c.266-.833.482-1.682.648-2.54.328-1.605.49-3.238.482-4.875A24.715 24.715 0 0 0 37.242 3.479z"/>
        <path fill="#151515" fill-rule="nonzero" d="M25.114 49.86h-.169c-.429 0-.858 0-1.287-.031-.064 0-.158 0-.229-.016h-.237a22.296 22.296 0 0 1-.77-.064l-.248-.025a15.93 15.93 0 0 1-.852-.096A25.007 25.007 0 0 1 4.555 39.269a24.989 24.989 0 0 1-2.653-4.795A24.705 24.705 0 0 1 0 24.93C0 11.233 11.146.048 24.85 0h.2a25.062 25.062 0 0 1 11.936 3.082l.372.203a25.027 25.027 0 0 1 12.53 21.647 24.144 24.144 0 0 1-.486 4.92c-.17.868-.39 1.726-.66 2.568-.284.904-.622 1.79-1.011 2.653-.361.821-.769 1.62-1.222 2.395-.21.363-.43.728-.664 1.085a25.212 25.212 0 0 1-2.724 3.457l-.142.145c-.194.203-.388.404-.59.594a24.986 24.986 0 0 1-10.7 6.2 25.95 25.95 0 0 1-3.114.663c-.137.02-.274.036-.413.05l-.103.103-.091-.082c-.228.027-.44.048-.664.068h-.126c-.194.023-.406.039-.625.055-.478.03-.955.055-1.439.055zM24.85.458C11.395.497.457 11.479.457 24.929a24.51 24.51 0 0 0 3.495 12.598c.253.418.596.966.975 1.491a24.548 24.548 0 0 0 16.459 10.146c.276.04.552.071.829.096l.242.025c.258.026.509.048.769.064h.249c.067.01.135.015.203.016.434.025.854.032 1.274.032h.162c.477 0 .945-.023 1.416-.048.21-.016.413-.032.628-.054h.13c.228-.023.48-.048.733-.078l.11-.014c.125-.014.253-.027.378-.045a25.63 25.63 0 0 0 3.06-.651 24.539 24.539 0 0 0 10.502-6.094c.2-.19.388-.383.577-.582l.14-.144a24.623 24.623 0 0 0 2.675-3.4c.238-.358.443-.705.651-1.061.446-.76.847-1.545 1.201-2.352.382-.848.714-1.718.993-2.605.264-.823.479-1.662.644-2.511a23.73 23.73 0 0 0 .477-4.831A24.575 24.575 0 0 0 37.128 3.67l-.365-.198A24.612 24.612 0 0 0 25.05.457h-.2z"/>
        <path fill="#666" d="M10.356 22.623l-.087-.039.046.074.041-.035z"/>
        <path fill="#666" fill-rule="nonzero" d="M18.06 15.925v-2.982l-.505.14-.89.024-1.254.555-.438.016v-.395l-.25-.087-.052.037.048.173-.397.58-.943.658-.457.039-.74-.984 1.756-.069-2.438-.988.057-.286-1.068-.077-1.498.653-1.35 1.452v.456l-.456.135-.153.105-.434 1.208.445.212.523-.34.523 1.24.267-.096.457-.487.347-.639-.1-.196.093-.877.783-.913.626-.087-.092.507-.424.507-.014.758.993-.066.626.152-.016.206-.875.123-.287.409v.511l-.47-.228-.302.728-1.427.443-.511-.134-.457-.457.014-.279h-.105v.562l-.124.324-2.54 1.635.456.881-.607.628-.078-.02-.984.732.5.975 1.235-.495.703-.802 1.032-.634.67.141 1.285 1.23.04-.328-.913-1.123.14-.51 2.036 2.04.203.063-.262-.438.813-.19 1.052-1.636.507.203.263.253.061-.057-.112-.356.608-.228.228.228.685 1.326h-.032l1.664.526-.228-.914.203-.306.537-.8.155-1.642 2.582-1.39-.934-1.238zm-6.357-.124l.114-.228.434.409-.548-.18zm2.692 13.927l-2.272-4.582.434.425-.457-.815-2.038-.388-1.254.395-1.103-.56-.303-.575-.468-.518-3.028.525-.495.566-1.692 3.509-.123 1.142.082.397.795 1.418 1.12.799 1.92-.322 1.25.363.502.47.07 1.413.544 1.014.132 3.288 1.1 3.737 1.076.048 1.89-1.867.813-2.25.42-.31.475-1.11-.203-.892.229-1.696.874-.984 1.383-2.537-.851.178-.822-.28z"/>
        <path fill="#FFF" fill-rule="nonzero" d="M44.788 13.874l-3.151-1.29-.313.418-2-.445-.62-.297-.759.014-.73-.324-.603-.114-.39.16-.023-.332-.745-.059-.854.518-1.445.178-.863-.698.322-.229-.018-.114-3.653-.25-.208.294-1.007-.016 1.188-.63.337-.537-.486-.123-.514.06-.716-.48-.535.632-3.322.566.151.507-1.066-.046-.228.115.566.794-.14.276-.214-.187-.959-.386.249.363-.859-.488-.086.913 1.077.954-.842-.577-.457.685-1.075-.133.712.053.091-1.808-.132-.332-.404.133-.228.329v.685l.13.44-1.382-.267-.525.144v2.982l.934 1.267-2.58 1.39-.155 1.642.288.148-.16.263-.149.637.201.379.368.153-.208.296.13.503-.139.431-.669-.066-.178-.726-1.664-.525-.724.2-.158-.031-1.486.025-.648.331.44.84 1.142-.023.285.229-.39 1.253-.411.228h-.014l.443.802.658.639 1.267 2.74.518.274 1.575-.792 1.31-1.464-.762-.712-.41.287-.63-.17-.535-1.03-.023-.416.473.055.2.24 4.026 1.614v.344l.472-.271 1.087 3.653 1.322-2.708 1.564-.954.685 1.691.64-.367.348 1.692.083-.229.335-.262.487.18.456.717.539-1.699-.304-.468.124-.883.648-.13 1.728-.914.612-.98-.137-.949.105-.018.087-1.29-.6-.137-.192-.327.99-.534-.05.329.742.06.373 1.168.3-.516-.211-.557.068-.393.674-.74.849-.337.943-1.372.228-1.281-.287-.297-.877-.313.178-.262 1.278-1.092 2.087-.143.612-.197.9-.63.388.388.79-.685.13.105-.3.507-1.14 1-.23 1.984 1.323-2.628 3.301-.892.053-.105-.617-.71-.02-.135.936-.432.315.274 1.007.411.616-.575-.874-.053zm-26.783 7.188l-.213-.1.286-.51.15.066-.223.544z"/>
        <path fill="#666" d="M10.023 23.01l.34-.273-.048-.08-.342.293.05.06zM37.027 38.301l-.792-1.262-.514-1.496-.646 1.779-.822-1.585-.82-.2-.63 1.084-.792-.205-1.575 1.525-.742.395-.2.7.052.53-.016-.007.356 1.786.472.383 1.489-.639 1.758-.078.591.503.336-.436.1.038v.366l.233.386.898.799.637.032.99-1.217.414-2.149-.126-.342-.65-.69zM30.137 31.112l-1.603 1.482 1.267 1.011.137-.167.297-.717-.103-.856.377-.454-.372-.3zM35.265 34.795l.504-.026.825.151.397.32.057-.094-1.02-1.242-1.195-.548-.424.05-.59-.15-.367-.395.253.65 1.076 1.1.484.184zM15.032 36.728l-.358.786-.04 1.379.571.07.594-2.228.007-.682-.774.675zM35.084 22.169l-.762.927-1.482.813.233.73.738-.76-.106-.164.06-.069.365.233.984-.24.354-1.422-.171-.23-.213.182zM4.4 17.703l.068.555-.242.295.119.479 1.089-.365-.92-1.694-.1-.446-.014 1.176zM25.854 31.568l1.696 2.45.229-.625-1.925-1.825zM16.413 11.77l.708.474-.02-.648 1.385-1.121 1.222-.35-.019-.061-2.205.47-.468.774-.603.461zM8.468 9.055l.464-.002-.343.36.265.569.685-.998-1.573-.454-.073.082.091.49.484-.047zM35.263 21.676l1.052-.562-.934-.45-.118 1.012zM26.388 8.525l-.33.263-.942-.06 1.272.386v-.589zM3.854 18.037l-.17-.313-.246.157-.344.701.76-.545zM31.22 28.103l-.206.027.07.911.66.502.035-.013-.313-.352-.247-1.075zM36.114 43.619l.43.402.214-.334-.495-.255-.149.187zM31.406 30.705l.537.414.199-.56-.108-.068-.628.214zM35.53 10.422l-.532-.127-.263.1.05.203.745-.176zM31.692 35.292l.605-.42-.105-.144-.59.446.09.118zM15.447 7.99l-.474.184.525.317-.05-.5zM18.06 12.943v-.986M12.557 25.57c.43.786.85 1.565.85 1.565"/>
    </g>
</svg>
