<svg xmlns="http://www.w3.org/2000/svg" width="50" height="50" viewBox="0 0 50 50">
    <g fill="none" fill-rule="evenodd">
        <path fill="#666" fill-rule="nonzero" d="M37.237 3.48l-.367-.2A24.674 24.674 0 0 0 25.05.229h-.198A24.733 24.733 0 0 0 3.749 37.644c.315.511.64 1.016.988 1.509a27.82 27.82 0 0 0 1.754 2.21 24.678 24.678 0 0 0 14.856 8.018c.279.046.557.071.845.098l.228.028c.26.027.512.046.783.064.08 0 .162 0 .242.018.076.01.152.017.229.018.423.019.845.028 1.267.028h.173c.486 0 .952-.028 1.43-.046l.639-.055h.107l.756-.08a.011.011 0 0 0 .018 0c.162-.018.324-.036.486-.064a23.176 23.176 0 0 0 3.082-.655 24.616 24.616 0 0 0 10.605-6.157c.252-.229.487-.478.72-.729a24.52 24.52 0 0 0 1.956-2.351c.251-.352.503-.71.747-1.078.244-.367.456-.71.655-1.068a24.801 24.801 0 0 0 2.21-5.007c.271-.83.487-1.676.646-2.534.331-1.603.494-3.236.487-4.873A24.71 24.71 0 0 0 37.238 3.48zm-20.32 28.267c-.054.064-.106.116-.17.19-.046-.08-.073-.136-.108-.2-.228-.431-.333-.933-.737-1.258-.037-.018 0-.134 0-.242a3.493 3.493 0 0 1-.457.229c-.156.06-.315.111-.477.153l-.027-.055c.027-.055.064-.107.07-.135-.143-.064-.269-.125-.404-.19-.072.01-.144.017-.217.019-.027-.199-.054-.358-.07-.477-.108-.037-.18-.064-.242-.08v-2.475l-1.115-2.418 1.115-2.724c.107-.198.19-.342.228-.422-.09-.19-.144-.315-.208-.457-.036-.063-.089-.17-.153-.18-.228-.046-.18-.208-.144-.342.046-.19.117-.377.18-.576-.088-.045-.143-.08-.216-.116.027-.055.089-.107.08-.144-.117-.251.089-.352.228-.457a.888.888 0 0 0 .306-.53c.046-.18.116-.35.171-.529.046-.126.117-.171.251-.116.175.065.356.116.54.153.116.036.143.098.152.214.046.288-.116.502-.208.756a.333.333 0 0 0 .019.278c.19.27.116.548.08.836-.046.359-.073.72-.108 1.078 0 .036.046.08.073.116a.379.379 0 0 1 .064.52.626.626 0 0 0-.045.229.79.79 0 0 1-.432.502c.018.046.027.09.055.153-.18.046-.343.08-.512.126.019.27.09.315.487.333.162-.144.278-.242.386-.342.052-.056.1-.117.143-.18a1.7 1.7 0 0 1 .153-.252.475.475 0 0 0 .126-.593.283.283 0 0 1 .228-.414c.117-.027.242-.045.352-.073.178.25.244.563.18.863-.045.162.09.229.306.171-.306-.17-.306-.189-.098-.477 0-.018.037-.045.027-.054a1.043 1.043 0 0 0-.17-.457c-.126-.126-.261-.324-.53-.208-.099.037-.377-.064-.395-.135a1.384 1.384 0 0 1 .036-.684.94.94 0 0 0-.027-.863c-.028-.046-.037-.108-.064-.153a.374.374 0 0 1 .173-.48c.058-.052.122-.097.19-.135a.342.342 0 0 0 .18-.404 1.356 1.356 0 0 1 0-.27h.08c.037.127.062.256.073.387 0 .27-.135.53-.055.808 0 .036-.036.08-.07.135.278.134.538.26.844.404-.045-.144-.064-.229-.089-.315l-.055.054a3.279 3.279 0 0 1-.385-.315c-.055-.064-.037-.19-.055-.287.018 0 .045 0 .073-.019.045.071.089.135.153.229.107-.073.198-.144.306-.217a2.352 2.352 0 0 1-.153-.162c.367-.208.52-.215.799.036.228.199.386.487.746.477 0 0 .019.019.037.046-.037.073-.055.18-.116.208-.2.098-.172.27-.18.44a.986.986 0 0 1-.02.229c-.045.18 0 .306.163.358a.637.637 0 0 0 .107-.116l1.726 1.55 1.142 4.359-1.916.79-2.255 4.45a.322.322 0 0 0-.137-.151h-.007z"/>
        <path fill="#151515" fill-rule="nonzero" d="M25.114 49.858h-.171c-.426 0-.852-.009-1.276-.027a2.18 2.18 0 0 1-.24-.02h-.24a22.48 22.48 0 0 1-.78-.064l-.229-.028c-.288-.027-.57-.055-.854-.1a24.984 24.984 0 0 1-14.99-8.09 28.068 28.068 0 0 1-1.768-2.23 26.32 26.32 0 0 1-.998-1.523A25.16 25.16 0 0 1 0 24.934C.025 11.206 11.124.07 24.852 0h.198a25.043 25.043 0 0 1 11.936 3.084l.372.2a25.02 25.02 0 0 1 12.535 21.65c.007 1.652-.158 3.3-.491 4.918-.164.87-.385 1.728-.662 2.568a25.014 25.014 0 0 1-2.23 5.05c-.245.425-.457.767-.663 1.08a24.909 24.909 0 0 1-3.459 4.199 24.906 24.906 0 0 1-13.81 6.86c-.137.023-.277.04-.416.055l-.098.099-.094-.08-.66.07h-.132l-.984.069c-.356.02-.712.036-1.08.036zM24.852.457C11.377.53.485 11.459.457 24.934a24.72 24.72 0 0 0 3.49 12.593c.359.585.672 1.06.98 1.496.542.76 1.122 1.49 1.737 2.192a24.539 24.539 0 0 0 14.722 7.945c.276.045.55.07.833.098l.228.027c.258.028.507.046.774.062h.254c.066.01.132.015.199.016.429.018.847.027 1.267.027h.173c.36 0 .712-.016 1.064-.03l.99-.045h.129l.833-.091a23.06 23.06 0 0 0 3.443-.7 24.461 24.461 0 0 0 10.502-6.092c.277-.256.525-.521.713-.722a24.43 24.43 0 0 0 2.682-3.404c.204-.306.409-.642.649-1.057a24.562 24.562 0 0 0 2.192-4.961c.268-.822.483-1.661.641-2.512.327-1.59.489-3.208.482-4.83A24.57 24.57 0 0 0 37.128 3.686l-.365-.196A24.589 24.589 0 0 0 25.05.457h-.198zm-7.779 31.915l-.16-.278-.2.228-.263-.475a4.737 4.737 0 0 1-.183-.4 1.89 1.89 0 0 0-.498-.792.15.15 0 0 1-.061-.05 4.427 4.427 0 0 1-.655.226l-.18.05-.131-.267v-.07l-.082-.04-.076-.036c-.066 0-.132.011-.178.011h-.196l-.027-.194-.05-.338-.092-.038-.162-.046v-2.589l-1.142-2.461L13.88 22l.19-.345-.074-.194-.068-.153-.041-.075a.413.413 0 0 1-.254-.176.507.507 0 0 1-.02-.418c.036-.146.082-.283.128-.422l-.247-.126.103-.2a.51.51 0 0 1 .034-.058c-.098-.308.174-.502.295-.586l.05-.037c.12-.1.202-.24.228-.395.03-.12.069-.228.108-.34.025-.069.047-.14.07-.21a.427.427 0 0 1 .229-.27.409.409 0 0 1 .33 0c.162.061.329.109.498.142a.43.43 0 0 1 .315.434.84.84 0 0 1-.025.36.947.947 0 0 1 .151-.095c.046-.025.078-.041.06-.172a1.525 1.525 0 0 1 0-.317l.02-.203h.205a.422.422 0 0 1 .08 0h.194l.062.272c.032.11.05.225.055.34-.001.076-.008.153-.02.228l.045-.016.155-.087c.404-.228.685-.28 1.06.064.054.05.11.105.164.162.16.167.276.263.427.258h.107l.162.242-.045.13a.475.475 0 0 1-.229.313c-.03.016-.036.018-.04.17V20.431l1.956 1.762 1.198 4.614-2.016.818-2.406 4.746zm-.945-1.995c.249.256.437.564.552.902.04.09.078.182.121.274l.06-.069.132.057 2.16-4.258 1.81-.749-1.066-4.11-1.516-1.37-.073.058-.116-.039a.48.48 0 0 1-.31-.628.826.826 0 0 0 0-.178v-.075a.635.635 0 0 1 .148-.457 1.352 1.352 0 0 1-.407-.329c-.045-.048-.089-.093-.137-.137-.11-.1-.166-.148-.267-.13l.123.121-.219.146-.034.026.087.267c.013.04.025.084.039.134.013.05.03.11.052.183l.153.489-.457-.229c-.308-.144-.568-.27-.847-.406l-.134-.041c.111.3.104.632-.02.927a1.057 1.057 0 0 0-.037.502c.041.02.086.031.132.034a.591.591 0 0 1 .701.229l.041.043a.874.874 0 0 1 .201.44l.014.053.091.091-.126.19-.08.116.094.053.496.276-.55.137a.49.49 0 0 1-.5-.089.363.363 0 0 1-.078-.36.765.765 0 0 0-.082-.549h-.03l-.153.03a.16.16 0 0 0-.087.039.137.137 0 0 0 .014.075.685.685 0 0 1-.185.838s-.03.053-.046.085a1.37 1.37 0 0 1-.242.34c-.068.064-.134.12-.21.187l-.253.228h-.092c-.39-.018-.669-.066-.698-.54l-.012-.186.18-.048.27-.066-.055-.14.274-.08a.728.728 0 0 0 .229-.312.726.726 0 0 1 .073-.304c.057-.084.077-.13-.037-.26a.43.43 0 0 1-.13-.267l.034-.379c.023-.242.044-.484.076-.726l.016-.112a.73.73 0 0 0-.057-.568.553.553 0 0 1-.04-.498c.021-.057.053-.128.083-.199a.76.76 0 0 0 .107-.431v-.062a1.74 1.74 0 0 1-.509-.119l-.064.188a2.551 2.551 0 0 0-.091.292c-.046.254-.18.484-.38.648l-.07.05a.511.511 0 0 0-.119.101l.028.082a.249.249 0 0 1 0 .105h.013l.172.087-.133.37c-.04.125-.084.249-.114.372l-.018.07a.502.502 0 0 1 .28.268l.092.194.132.288.05.105-.278.525-1.057 2.61 1.094 2.422v2.31l.228.073.034.229.028.182h.059l.196.094c.085.041.17.082.263.12l.162.072.096-.037c.107-.04.21-.09.308-.148l.486-.258-.034.41c0 .04 0 .078-.016.117l-.018-.011zm-.491-8.02V22.462a.203.203 0 0 0 0-.107zm0-.736l.037.06.027-.026-.025-.013-.039-.021zm.386-2.345l-.073.06c-.144.125-.119.173-.092.228.02.035.035.071.046.11l.016.027.114-.171a.957.957 0 0 1-.013-.254h.002z"/>
        <path fill="#FFF" d="M21.233 26.66l-1.916.79-2.255 4.45a.322.322 0 0 0-.135-.153c-.055.064-.107.116-.171.19-.046-.08-.073-.136-.108-.2-.228-.431-.333-.933-.737-1.258-.037-.018 0-.134 0-.242a3.493 3.493 0 0 1-.457.229c-.156.06-.315.111-.477.153l-.027-.055c.027-.055.064-.107.07-.135-.143-.064-.269-.125-.404-.19-.071.01-.144.017-.216.019-.028-.199-.055-.358-.071-.477-.108-.037-.18-.064-.242-.08v-2.475l-1.114-2.418 1.114-2.724c.107-.198.19-.342.228-.422-.089-.19-.144-.315-.208-.457-.036-.063-.089-.17-.153-.18-.228-.046-.18-.208-.143-.342.045-.19.116-.377.18-.576-.09-.045-.144-.08-.217-.116.027-.055.089-.107.08-.144-.117-.251.089-.352.228-.457a.888.888 0 0 0 .306-.53c.046-.18.117-.35.171-.529.046-.126.117-.171.252-.116.175.065.355.116.538.153.117.036.144.098.153.214.046.288-.116.502-.207.756a.333.333 0 0 0 .018.278c.19.27.116.548.08.836-.046.359-.073.72-.108 1.078 0 .036.046.08.073.116a.379.379 0 0 1 .064.52.626.626 0 0 0-.045.229.79.79 0 0 1-.432.502c.018.046.028.09.055.153-.18.046-.342.08-.511.126.018.27.089.315.486.333.162-.144.278-.242.386-.342.053-.056.1-.117.144-.18a1.7 1.7 0 0 1 .153-.252.475.475 0 0 0 .125-.593.283.283 0 0 1 .228-.414c.117-.027.242-.045.352-.073.178.25.244.563.18.863-.045.162.09.229.306.171-.306-.17-.306-.189-.098-.477 0-.018.037-.045.028-.054a1.043 1.043 0 0 0-.172-.457c-.125-.126-.26-.324-.53-.208-.098.037-.376-.064-.394-.135a1.384 1.384 0 0 1 .036-.684.94.94 0 0 0-.027-.863c-.028-.046-.037-.108-.064-.153a.374.374 0 0 1 .164-.48c.058-.052.122-.097.19-.135a.342.342 0 0 0 .18-.404 1.356 1.356 0 0 1 0-.27h.08c.037.127.062.256.073.387 0 .27-.135.53-.055.808 0 .036-.036.08-.07.135.278.134.538.26.844.404-.045-.144-.064-.229-.089-.315l-.055.054a3.279 3.279 0 0 1-.385-.315c-.055-.064-.037-.19-.055-.287.018 0 .045 0 .073-.019.045.071.089.135.153.229.107-.073.198-.144.306-.217a2.352 2.352 0 0 1-.153-.162c.367-.208.52-.215.799.036.228.199.386.487.746.477 0 0 .019.019.037.046-.037.073-.055.18-.116.208-.2.098-.172.27-.18.44a.986.986 0 0 1-.02.229c-.045.18 0 .306.163.358a.637.637 0 0 0 .107-.116l1.726 1.55 1.142 4.36z"/>
        <path fill="#151515" d="M14.103 22.084l-1.114 2.724 1.114 2.418v2.473a1.909 1.909 0 0 0-.466.055c-.055.018-.098.08-.153.098-.279.073-.557.153-.836.207-.342.064-.685.108-1.025.162-.045.163.055.288.242.386-.089.028-.17 0-.242.028a.484.484 0 0 0-.134.089c.153.25-.117.25-.229.367l.414.306c-.071.229-.126.27-.359.208a.142.142 0 0 0-.107 0c-.135.153-.27 0-.315-.046-.09-.134-.162-.18-.325-.116-.107.036-.278-.046-.358.018-.19.153-.297.071-.413-.08-.022.044-.04.089-.055.135a1.484 1.484 0 0 0-.26-.342 1.267 1.267 0 0 0-.359-.135c-.456-.073-.746.18-1.007.404-.018.135-.036.228-.045.324h-.08c-.073-.089-.135-.18-.242-.306-.107.297-.199.557-.288.808.073.117.135.288.228.297.27.037.306.229.359.432a1.23 1.23 0 0 1-.18.08l.162.098c-.098.073-.162.135-.229.19a1.272 1.272 0 0 0-.098-.145c-.107.215-.214.432-.324.64.072.133.136.271.19.413.054.144.045.306.107.44a.31.31 0 0 1-.028.396h-.19c-.189-.199-.332-.478-.556-.567a1.678 1.678 0 0 1-.64-.242c-.018-.018-.045 0-.063-.018-.404-.089-.827-.125-1.115-.486a1.288 1.288 0 0 0-.214-.144 2.482 2.482 0 0 1-.217-.19c.171-.143.315-.25.457-.367l-.144-.171c.153-.064.278-.126.404-.18v-.037a2.374 2.374 0 0 1-.242-.019c.027-.296.228-.269.44-.25a1.3 1.3 0 0 1 .09-.487c.107-.199.027-.278-.126-.342-.19-.08-.413-.09-.53-.288 0-.018-.064-.018-.089-.018-.18.036-.431.027-.44-.153 0-.251-.26-.208-.315-.368a.155.155 0 0 1 0-.089.215.215 0 0 0-.215-.297 2.667 2.667 0 0 0-.44.055c-.028-.153-.056-.315-.08-.457.143-.018.26-.045.456-.08a2.167 2.167 0 0 0-.19-.198.685.685 0 0 1-.315-.603c0-.153.019-.342-.17-.377-.117-.027-.215-.08-.307-.107-.367-.08-.26-.395-.342-.612-.09-.26.036-.566-.162-.808v-.089c.19-.064.367-.116.358-.358a.142.142 0 0 1 .09-.099c.125-.045.26-.07.394-.107-.046-.208-.486-.036-.386-.386-.064 0-.116-.018-.134-.018.287-.315.584-.63.88-.943a.377.377 0 0 0 .02-.566.409.409 0 0 1-.09-.457c.028-.055 0-.144-.027-.214-.037-.18-.153-.395-.09-.548.135-.343 0-.64-.036-.952a.58.58 0 0 1 .046-.368.555.555 0 0 0-.046-.7c-.228-.289-.198-.496.08-.738.09-.09.153-.199.242-.27a1 1 0 0 1 .279-.134c.085-.03.172-.055.26-.074v-.098c.089.055.18.098.27.153 0 .028-.019.046-.028.073a3.75 3.75 0 0 0-.251-.054c0 .045 0 .098.018.107.228.125.395.358.7.324a.548.548 0 0 1 .512.26c.202.288.478.515.8.656.25.098.456.646.367.88a.785.785 0 0 1-.913.457c-.27-.089-.54-.17-.8-.26a.703.703 0 0 1-.18-.098c-.18-.135-.367-.27-.557-.395 0 0-.045.018-.162.07.228.243.44.457.655.665a.35.35 0 0 1 .046.477.555.555 0 0 0-.018.172c.027.153.055.296.08.456.306.046.422.585.881.386a8.676 8.676 0 0 1-.064-.315.502.502 0 0 0-.073.046 1.99 1.99 0 0 1-.26-.297c-.028-.064.045-.171.08-.306.162.144.269.228.367.324l.685.228a4.276 4.276 0 0 1-.18-.495.345.345 0 0 1 .045-.288c.225-.183.458-.354.701-.511.108.098.251.228.386.342.02-.11.047-.217.08-.324.064-.18.135-.351-.036-.52-.028-.028-.019-.117 0-.172.063-.287.17-.575-.108-.853.738.17.808.228.836.646-.575.198-.575.228.064.854a4.39 4.39 0 0 1 .246-.405c.073-.123.168-.233.279-.324.228-.148.465-.283.71-.404.122-.045.248-.078.377-.098 0-.064 0-.228.162-.098.073-.064.125-.117.19-.171.023.073.036.15.036.228 0 .162.036.278.208.324.116-.098.162-.324.395-.251.22.075.462.007.611-.171a.934.934 0 0 1 .229-.153c.018.153.027.27.045.376a.975.975 0 0 0 .046.153.78.78 0 0 0 .126-.116c.036-.055.045-.153.08-.171.287-.108.25-.288.152-.503a.21.21 0 0 1 .229-.296c.297.09.583.214.854.367.234.143.449.314.639.512.141.143.248.316.313.506zM47.26 26.066c-.036-.018-.08-.045-.153-.089 0 .09 0 .144.019.215-.352-.098-.229.324-.457.376-.018 0-.018.071-.027.099v.027c.134.144-.046.162-.08.251a1.888 1.888 0 0 0-.487-.351c-.19-.055-.27-.144-.25-.315 0-.208-.09-.27-.261-.27h-.457v-.456l-.073.018a.55.55 0 0 0-.214.064.183.183 0 0 0 0 .18c.153.19.054.324-.071.44-.126.117-.288.229-.395.325-.144-.046-.228-.08-.333-.107a.228.228 0 0 0-.046.054c.027.071.055.208.098.229.18.036.18.19.228.297.064.132.1.275.108.422 0 .171.144.377-.098.495-.352-.162-.352-.17-.685-.054a5.178 5.178 0 0 0-1.142.62 3.589 3.589 0 0 0-.292.231c-.135.107-.27.215-.377.306-.162-.089-.352-.27-.539-.278-.187-.01-.386.162-.557.242v-.2a.808.808 0 0 1-.089-.079c-.125.089-.242.18-.358.27-.135-.028-.279.027-.359.25a3.196 3.196 0 0 1-.171.297c-.098.19-.297.343-.251.585h.251a.975.975 0 0 1-.037.228c-.054.135-.107.26.019.404.045.055 0 .18 0 .279h-.09c0-.073-.018-.135-.027-.229-.162.215-.386.377-.27.685.065.18 0 .279-.198.252a.42.42 0 0 0-.171.054c-.228.099-.228.315-.228.512-.208.055-.414.08-.44.342-.028.306-.261.44-.487.63-.064-.495-.144-.952-.162-1.401-.004-.388.02-.776.07-1.16a.418.418 0 0 1 .117-.19c.098-.144.208-.278.324-.44a2.61 2.61 0 0 0 .44-.325c.423-.44.766-.98 1.357-1.23.036-.018.036-.09.064-.135.153-.251.073-.63.422-.774-.089-.18-.228-.144-.342-.07a.404.404 0 0 0-.19.495c-.386 0-.511.386-.774.486-.228-.199-.08-.404 0-.584a1.347 1.347 0 0 1-.214-.037c-.064-.018-.135-.073-.19-.064a.763.763 0 0 0-.62.306c-.108.18-.316.297-.457.457a1.37 1.37 0 0 0-.242.431c-.019.028.125.117.189.18v.037c-.358.037-.71.064-1.062.098a.249.249 0 0 0 0-.08c.08-.036.153-.08.297-.153-.315-.08-.575-.153-.826-.228-.055.08-.098.153-.126.199-.27-.019-.52-.037-.835-.055-.2-.153-.774-.126-1.053.135-.215.207-.404.456-.621.655-.457.422-.9.835-1.35 1.258v.08c.126.027.252.064.387.098v.386c.073-.098.107-.153.162-.229.006.1.018.2.036.297.09 0 .19-.018.297-.036a4.59 4.59 0 0 0 .055-.27c.098.019.25 0 .27.055.088.26.456.352.367.738a2.2 2.2 0 0 1-.162.575.699.699 0 0 0-.108.352c.028.456-.036.863-.404 1.178a1.715 1.715 0 0 0-.214.287c-.352.423-.685.854-1.053 1.277a.938.938 0 0 1-.306.214.37.37 0 0 1-.456-.046.685.685 0 0 1-.117-.134c-.135.107-.228.19-.377.315v-.162a.57.57 0 0 0 .172-.64c-.028-.134.198-.287.333-.214a.203.203 0 0 0 .315-.117c.098-.228.208-.456.306-.685.064-.143.116-.287.171-.431-.018-.018-.045-.027-.064-.046-.214.08-.431.153-.646.229-.214.075-.404 0-.395-.18.028-.396-.26-.496-.53-.603a1.646 1.646 0 0 1-.228-.064.28.28 0 0 1-.125-.144c-.08-.334-.135-.665-.229-.998-.036-.135-.116-.315-.228-.358-.324-.144-.64-.334-1.034-.242a.73.73 0 0 0-.487.315c.19.08.215.18.117.306a3.31 3.31 0 0 0-.352.566.48.48 0 0 1-.685.278c-.351-.107-.685-.287-1.077-.027a1.22 1.22 0 0 1-1.258-.027c-.229-.126-.457-.297-.685-.441a.457.457 0 0 0-.457-.046c-.306.144-.539 0-.603-.333a.331.331 0 0 0-.125-.199 4.082 4.082 0 0 0-.53-.25c-.144-.065-.456.189-.477.35-.02.163-.018.325-.027.512l-.747-.055a.215.215 0 0 1-.126-.045 1.011 1.011 0 0 0-1.086-.172 7.49 7.49 0 0 0-.854.496c-.055.036-.117.055-.144.073-.037-.144-.07-.26-.08-.315a1.78 1.78 0 0 1-.422-.09.379.379 0 0 1-.18-.227c-.126-.325-.325-.414-.64-.279-.135.055-.199-.018-.26-.107l2.256-4.45 1.938-.783-1.142-4.36-1.726-1.556c.1-.13.137-.297.098-.456a2.895 2.895 0 0 1 .03-.612c0-.071.028-.18 0-.229a2.87 2.87 0 0 0-.49-.497.379.379 0 0 1-.181-.413.354.354 0 0 0-.027-.229.372.372 0 0 1 .287-.575c.404-.046.808-.08 1.206-.135a.379.379 0 0 0 .207-.135c.153-.207-.063-.269-.17-.376.046-.056.097-.107.152-.153-.064-.09-.125-.171-.18-.251a.16.16 0 0 1 .064-.046c.064.046.134.089.198.144.08-.144.153-.279.229-.413.073-.037.19-.055.25-.126.168-.207.404-.347.665-.395.215-.046.423-.107.64-.171.065-.028.129-.06.189-.098-.09-.055-.135-.09-.19-.117 0-.018 0-.036.019-.055.278-.018.557-.036.863-.064-.028.126-.037.19-.046.229.055 0 .135 0 .171.018.135.135.229.037.325-.046.093-.09.177-.19.25-.296.126.125.2.207.334.333a1.3 1.3 0 0 0-.027-.315 1.65 1.65 0 0 0-.19-.228c.18-.019.324-.028.457-.037.19 0 .214-.098.162-.26a.297.297 0 0 1 0-.199c.214-.367.413-.746.826-.934a.822.822 0 0 0 .144 0c.08.055.162.117.251.172.208.125.229.296.046.456-.07.064-.153.107-.228.171.018.019.027.037.045.055.064-.027.117-.055.126-.055.135.055.228.099.315.126.228.055.27.135.126.333-.074.098-.163.19-.243.288.019.018.028.046.046.064.107-.037.27-.037.315-.117a.397.397 0 0 1 .503-.198c.107.027.216.027.333.045a.852.852 0 0 1 .53.612c0 .046.073.08.107.126l.064-.037c-.019.208.287.405 0 .621l-.153-.153-.046.046c.08.08.162.153.26.26 0 .055.028.199-.018.252a9.589 9.589 0 0 1-.71.646c-.116.107-.27.18-.377.296a4.457 4.457 0 0 0-.367.457c-.09.126-.18.228-.359.19a.174.174 0 0 0-.134.063c-.135.172-.26.343-.386.521.02.012.039.028.055.046.064-.073.125-.135.214-.229.413.117.729-.228 1.105-.358.028 0 .037-.09.055-.135l-.055-.027c-.073.045-.144.08-.217.116a.27.27 0 0 1-.07-.036c.054-.108.098-.215.162-.352.143.144.315.135.431.27a.228.228 0 0 0 .413-.074c0 .215.028.432.046.665.073-.028.144-.055.228-.08-.054-.073-.098-.126-.134-.171.495-.315.927-.064 1.303.055.028.152 0 .305.073.342.346.233.779.3 1.178.18a.194.194 0 0 0 .08-.18c-.054-.228-.027-.432.229-.53.315.108.511.477.913.352a.032.032 0 0 0 .018 0 .7.7 0 0 1 .457.765.342.342 0 0 0 0 .19.393.393 0 0 1-.117.476.39.39 0 0 0-.054.288c.046.136.11.266.19.386a.621.621 0 0 0 .143.199c.104.081.212.157.324.228a53 53 0 0 0 .386-1.025c.171.26.171.603.548.566.125-.251.153-.26.404-.08.108.089.223.17.342.242a.322.322 0 0 0 .242 0c.143-.072.28-.153.414-.242a.733.733 0 0 1 .214-.655 1.84 1.84 0 0 0 .229-.386c.018-.046.08-.046.143-.027.647.207 1.295.413 1.95.611a.3.3 0 0 1 .26.325c-.089.064-.17.107-.228.153l.4.29c.027.018.064.018.089.036.117.053.243.107.377.162l-.18.279c.116.036.227.107.296.08.457-.126.913-.037 1.37 0a.58.58 0 0 1 .495.783c-.018.055-.036.116-.055.171.163.107.316.208.457.315.055-.036.117-.107.19-.116.2-.05.41-.05.611 0 .334.134.621.306.998-.046a.87.87 0 0 0 .477.845c.352-.208.414-.334.208-.585-.116-.144.055-.228.018-.351.081-.005.162-.005.242 0 .292.082.59.142.89.18.272.009.534.096.756.251.297.251.612.477.914.72.027.018.036.072.064.088.116.126.242.229.358.352.05.043.095.092.135.144.098.134.19.27.315.456v-.207c.358.18.046.639.342.799.064-.117.126-.215.18-.306.044.033.086.07.126.107.208 0 .423-.018.548.215.09.162.215.306.306.44-.055.069-.137.16-.217.25zM18.372 20.744l-.27-.242"/>
    </g>
</svg>
