<svg xmlns="http://www.w3.org/2000/svg" width="50" height="50" viewBox="0 0 50 50">
    <g fill="none" fill-rule="evenodd">
        <path fill="#151515" d="M37.242 3.48l-.368-.201A24.68 24.68 0 0 0 25.05.229h-.2A24.705 24.705 0 0 0 3.75 37.643c.313.514.633 1.018.986 1.507a24.774 24.774 0 0 0 16.61 10.237c.28.04.56.072.842.096l.24.025c.256.025.514.048.779.064.08 0 .16 0 .24.016a21.567 21.567 0 0 0 1.502.048h.164c.482 0 .954-.025 1.427-.048.217-.016.425-.032.642-.057h.105c.255-.025.504-.048.762-.08.16-.016.32-.032.482-.057a24.692 24.692 0 0 0 13.705-6.813c.25-.228.482-.482.722-.728a24.989 24.989 0 0 0 1.954-2.356c.256-.354.505-.713.747-1.073.242-.361.456-.713.657-1.073.45-.767.854-1.559 1.21-2.373a23.65 23.65 0 0 0 1.003-2.63c.266-.833.482-1.682.648-2.54.328-1.605.49-3.238.482-4.875A24.715 24.715 0 0 0 37.242 3.479z"/>
        <path fill="#151515" fill-rule="nonzero" d="M25.114 49.86h-.169c-.429 0-.858 0-1.287-.031-.077 0-.153-.006-.229-.016h-.237a22.426 22.426 0 0 1-.772-.064l-.246-.025a15.93 15.93 0 0 1-.852-.096A25.007 25.007 0 0 1 4.555 39.269a22.333 22.333 0 0 1-.993-1.52A24.705 24.705 0 0 1 0 24.929C0 11.233 11.146.048 24.85 0h.2a25.062 25.062 0 0 1 11.936 3.082l.372.203a25.025 25.025 0 0 1 12.53 21.647 24.084 24.084 0 0 1-.486 4.92 22.477 22.477 0 0 1-.658 2.568c-.284.904-.622 1.79-1.011 2.653-.36.822-.768 1.621-1.222 2.395-.248.43-.456.774-.664 1.085a25.285 25.285 0 0 1-2.724 3.457l-.139.145c-.196.203-.388.404-.591.594a24.986 24.986 0 0 1-10.699 6.2 26.041 26.041 0 0 1-3.114.663c-.137.02-.276.036-.413.05l-.103.103-.091-.082c-.229.027-.441.048-.667.068h-.126c-.194.023-.404.039-.625.055-.48.03-.955.055-1.44.055zM24.85.458C11.395.497.457 11.479.457 24.929a24.523 24.523 0 0 0 3.495 12.598c.253.418.596.966.975 1.491a24.548 24.548 0 0 0 16.459 10.146c.275.04.552.072.829.096l.228.023c.276.025.53.05.79.066h.249c.067.01.135.015.203.016.434.025.854.032 1.274.032h.155c.477 0 .945-.023 1.416-.048.207-.016.413-.032.628-.054h.13c.228-.023.48-.048.733-.078l.11-.014c.125-.014.253-.027.378-.045a25.648 25.648 0 0 0 3.06-.651 24.534 24.534 0 0 0 10.502-6.094c.2-.19.39-.383.58-.582l.139-.144a24.758 24.758 0 0 0 2.676-3.4c.237-.358.443-.705.65-1.061a22.77 22.77 0 0 0 1.2-2.352c.381-.848.713-1.717.992-2.605.264-.823.48-1.662.644-2.511.324-1.59.484-3.209.477-4.831A24.575 24.575 0 0 0 37.128 3.67l-.37-.194A24.607 24.607 0 0 0 25.05.457h-.2z"/>
        <path fill="#FFF" d="M23.623 14.947l-1.141 16.98a4.025 4.025 0 0 0-.377-.174c-.144-.064-.473.19-.475.352-.002.162-.023.329-.034.511l-.74-.05a.313.313 0 0 1-.128-.045 1.002 1.002 0 0 0-1.084-.176c-.3.144-.586.312-.859.502-.057.032-.12.055-.143.066a4.833 4.833 0 0 1-.078-.313 1.881 1.881 0 0 1-.427-.086.457.457 0 0 1-.183-.229.418.418 0 0 0-.634-.276c-.229.09-.245-.187-.388-.256l-.176.188-.105-.197c-.229-.433-.334-.933-.745-1.258-.03-.025 0-.13.012-.246-.144.083-.292.16-.443.228-.153.062-.317.1-.48.148a.473.473 0 0 1-.027-.052l.078-.135-.411-.185-.213.019a22.68 22.68 0 0 0-.07-.478 1.326 1.326 0 0 0-.322-.093 1.909 1.909 0 0 0-.39.055c-.056.013-.097.084-.147.098-.28.075-.56.15-.845.21-.333.064-.669.103-1.02.157-.044.17.052.293.24.39-.087.026-.167 0-.229.03a.457.457 0 0 0-.137.09c.146.248-.116.244-.228.367l.418.304c-.08.228-.126.267-.36.21h-.115c-.133.144-.267 0-.308-.053-.096-.132-.16-.173-.322-.116-.112.036-.286-.041-.363.02-.185.151-.297.071-.413-.082-.022.046-.04.093-.055.142a1.598 1.598 0 0 0-.26-.347 1.37 1.37 0 0 0-.366-.137c-.456-.067-.737.185-.998.41a5.93 5.93 0 0 0-.048.323h-.07c-.071-.087-.142-.176-.242-.304-.11.304-.206.564-.295.815.078.114.14.285.228.3.272.036.311.227.368.43l-.185.083.165.091c-.096.08-.167.133-.229.192-.036-.062-.068-.107-.093-.146-.11.228-.229.431-.327.637.064.134.14.271.194.413.026.15.063.296.11.44.079.127.064.29-.037.4l-.185-.011c-.185-.192-.338-.473-.561-.562a1.783 1.783 0 0 1-.633-.246c-.011-.014-.045 0-.066-.014-.404-.092-.826-.128-1.116-.486-.05-.067-.142-.092-.208-.144-.066-.053-.162-.142-.228-.197l.456-.36-.141-.176c.143-.066.274-.121.404-.176v-.037l-.242-.016c.034-.299.228-.276.44-.257.005-.166.034-.33.087-.487.112-.196.032-.274-.12-.342-.154-.069-.41-.087-.533-.283-.011-.019-.057-.023-.084-.019-.183.041-.434.03-.441-.146 0-.258-.27-.212-.317-.376a.183.183 0 0 1 0-.085.212.212 0 0 0-.215-.294 2.74 2.74 0 0 0-.436.047c-.03-.15-.06-.31-.087-.456l.457-.078a1.263 1.263 0 0 0-.19-.203.685.685 0 0 1-.315-.607c.014-.153.019-.334-.173-.377-.112-.025-.213-.078-.304-.103-.363-.086-.262-.402-.338-.618-.091-.254.03-.562-.166-.804v-.094c.184-.054.363-.116.363-.358 0-.037.05-.082.086-.098.126-.041.258-.073.395-.11-.045-.2-.493-.034-.388-.386l-.14-.018.884-.94a.377.377 0 0 0 .026-.562.4.4 0 0 1-.094-.47c.025-.053-.014-.142-.025-.215-.037-.183-.149-.397-.094-.548.14-.343.016-.64-.039-.955a.662.662 0 0 1 .035-.38.55.55 0 0 0-.048-.7c-.229-.29-.197-.495.077-.744.092-.084.158-.191.254-.267.083-.059.175-.106.271-.14.087-.029.179-.04.265-.063v-.06c.087.05.178.103.27.158a.372.372 0 0 0-.023.066l-.258-.048c0 .042 0 .094.016.105.228.124.4.361.703.322a.578.578 0 0 1 .516.256c.2.292.476.522.8.667.25.089.456.644.364.876a.772.772 0 0 1-.913.457c-.27-.087-.534-.167-.803-.26a.598.598 0 0 1-.174-.098c-.185-.13-.37-.265-.56-.393l-.166.075c.24.242.457.457.664.658a.368.368 0 0 1 .044.486.326.326 0 0 0-.016.162c.02.155.052.306.077.47.304.044.425.583.882.389a6.806 6.806 0 0 0-.064-.315l-.071.05a1.623 1.623 0 0 1-.256-.302c-.027-.059.04-.169.08-.3.158.14.265.227.37.321l.685.228a3.543 3.543 0 0 1-.183-.49.331.331 0 0 1 .05-.286c.206-.18.441-.331.685-.516l.39.347c.02-.11.047-.218.08-.324.062-.176.142-.347-.031-.516-.03-.034-.018-.119 0-.176.068-.288.173-.58-.105-.858.742.17.806.228.83.65-.572.197-.568.229.07.857.086-.144.152-.279.244-.402.071-.124.164-.234.274-.325.228-.15.466-.286.712-.406.123-.045.251-.077.381-.096 0-.068-.016-.228.155-.103.071-.063.135-.116.192-.17.022.078.035.16.04.241 0 .158.031.272.198.315.128-.1.17-.322.404-.249.22.073.463.003.612-.175.072-.057.148-.109.228-.153.016.16.023.267.043.376a.893.893 0 0 0 .048.158c.045-.036.087-.076.126-.119.034-.052.041-.15.082-.166.283-.112.244-.295.146-.514a.203.203 0 0 1 .24-.286c.297.084.583.206.85.363.378.252.757.516.951 1.007l.229-.422c-.087-.187-.137-.32-.206-.457-.036-.07-.091-.173-.15-.185-.229-.043-.18-.2-.149-.34.048-.19.121-.379.183-.573l-.229-.119c.03-.052.094-.111.078-.139-.11-.256.096-.35.228-.456a.845.845 0 0 0 .315-.526c.04-.182.11-.358.167-.534a.162.162 0 0 1 .251-.14c.176.064.356.117.539.158.123.032.146.096.162.215.039.288-.119.507-.212.751a.342.342 0 0 0 .018.295c.19.27.121.545.08.83-.046.36-.075.718-.103 1.076 0 .041.034.085.069.121.157.13.185.36.064.523a.63.63 0 0 0-.048.228.772.772 0 0 1-.43.498l.048.153-.504.128c.014.271.082.313.482.33.162-.136.278-.227.388-.344a.913.913 0 0 0 .141-.176c.042-.091.095-.177.158-.255a.477.477 0 0 0 .12-.6c-.084-.213 0-.357.23-.41l.346-.075c.18.247.244.56.176.859-.043.164.098.228.313.168-.304-.168-.309-.187-.103-.456.016-.02.039-.048.032-.062a1.126 1.126 0 0 0-.169-.445c-.135-.126-.263-.329-.541-.212-.098.043-.375-.062-.388-.13a1.411 1.411 0 0 1 .045-.701.913.913 0 0 0-.027-.863c-.027-.048-.034-.105-.062-.153a.363.363 0 0 1 .128-.489.833.833 0 0 1 .19-.141.342.342 0 0 0 .185-.407 1.776 1.776 0 0 1 0-.27h.091c.035.128.056.258.064.389 0 .27-.135.532-.055.813 0 .032-.036.073-.068.134l.849.395c-.043-.146-.07-.228-.096-.317a.532.532 0 0 1-.052.05 2.539 2.539 0 0 1-.382-.306c-.055-.066-.04-.196-.061-.292l.077-.018c.041.07.085.137.146.228.11-.073.204-.144.309-.228-.06-.057-.1-.105-.149-.155.365-.215.516-.229.797.031.228.206.386.487.744.475l.041.048c-.036.071-.057.18-.118.213-.201.098-.176.267-.178.438a1.02 1.02 0 0 1-.021.228c-.043.178 0 .302.167.354a.578.578 0 0 0 .2-.568 2.525 2.525 0 0 1 .021-.592c0-.077.025-.178-.016-.228a2.575 2.575 0 0 0-.475-.502.374.374 0 0 1-.176-.413.372.372 0 0 0-.03-.229.372.372 0 0 1 .288-.575c.405-.046.809-.08 1.208-.135.08-.019.15-.065.199-.13.162-.21-.055-.274-.17-.386.058-.06.117-.11.156-.153a7.832 7.832 0 0 1-.178-.25.539.539 0 0 1 .057-.047c.069.046.137.096.203.14.083-.14.153-.274.229-.404.075-.037.194-.06.249-.133.17-.206.408-.343.67-.388.215-.048.423-.112.63-.173.068-.028.132-.062.193-.1a2.63 2.63 0 0 1-.18-.122.192.192 0 0 1 .01-.048l.866-.064c-.025.121-.039.187-.05.228.064 0 .146-.018.176.016.139.13.228.035.328-.05.09-.09.173-.187.25-.29l.328.33a1.226 1.226 0 0 0-.03-.314 1.411 1.411 0 0 0-.187-.228c.185-.014.322-.032.457-.041.045 0 .09-.016.125-.044z"/>
        <path fill="#FFF" fill-rule="nonzero" d="M24.721 14.422l-.337.3.242.257-.103.124.164.276.039.064.19.308.342-.114.062-.014a.726.726 0 0 0 .48-.292h.015c.093.021.188.034.283.039h.062c.07.055.128.123.171.2a.5.5 0 0 0 .094.261l-.309.313.318.315.057.057c-.155.148-.322.295-.505.457-.04.033-.083.065-.128.093-.098.067-.19.143-.274.229a4.055 4.055 0 0 0-.37.456l-.036.05h-.014a.635.635 0 0 0-.47.229c-.103.128-.2.262-.299.395l-.1.134-.25.334.313.274.055.048.327.285.297-.315.057-.062c.285-.016.562-.108.801-.265.093-.053.191-.099.292-.137a.47.47 0 0 0 .137-.075h.025v.1l.044.585.552-.194.123-.043.108-.04.587-.205h.027c.02.166.117.314.26.4.31.19.664.294 1.028.304.177 0 .354-.03.522-.087.2-.08.342-.259.377-.47.16.103.346.159.537.162h.112a.263.263 0 0 1 .09.216.765.765 0 0 0 .015.423l-.023.027a.8.8 0 0 0-.16.699c.044.152.108.297.192.431l.036.064c.061.119.143.226.24.318.081.069.166.133.256.191l.105.073.475.338.205-.545.094-.25a.774.774 0 0 0 .365.085h.096l.246-.023.012-.022c.076.06.158.114.244.16a.749.749 0 0 0 .623.016c.121-.056.238-.12.35-.192l.118-.073.256-.151-.039-.295c-.029-.096 0-.2.076-.267a.959.959 0 0 0 .182-.228l.411.13.882.265-.229.144.535.388.118.087.295.212.057.034-.215.338.573.167.069.025c.1.046.209.072.32.075h.093l.06-.016c.136-.036.278-.053.42-.05.176.003.352.015.527.037l.267.025a.121.121 0 0 1 .096.054c.02.042.02.091 0 .133a1.77 1.77 0 0 0-.043.146l-.014.046-.091.315.271.182.251.17.229.148.249.169.25-.167.07-.052h.063c.076-.013.152-.02.228-.021l.057.025a1.598 1.598 0 0 0 .8.178c.123.25.32.455.566.587l.228.128.228-.13a.952.952 0 0 0 .553-.637.632.632 0 0 0 0-.172c.179.047.361.079.546.096a.87.87 0 0 1 .511.156c.183.148.37.292.557.433l.306.229c.023.038.05.073.082.105l.228.214.167.162a.53.53 0 0 1 .062.064c.066.09.13.18.203.288l.11.155.125.178c.022.233.16.439.368.546l.027.014.286.406-.016.039-.04.03-.097-.046a.655.655 0 0 0-.167-.413.705.705 0 0 0-.539-.213h-.018v-.034l-.018-.431h-.432a.932.932 0 0 0-.208.032.73.73 0 0 0-.367.143.603.603 0 0 0-.144.685 2.8 2.8 0 0 1-.133.11l-.102-.034-.267-.09-.197.204-.05.052-.196.256.12.276c.039.166.141.31.286.4 0 .025.018.055.032.091.014.037.039.1.055.149a1.395 1.395 0 0 0-.457.102 5.023 5.023 0 0 0-1.141.605l-.103.067a1.776 1.776 0 0 0-.24.196l-.08.073-.118.096a1.053 1.053 0 0 0-.526-.174.893.893 0 0 0-.347.076l-.269-.229-.069.05a.664.664 0 0 1 .05-.162l.457-.184-.228-.434a.646.646 0 0 0-.584-.38.742.742 0 0 0-.414.135.943.943 0 0 0-.328.375l-.318-.046-.089-.011a.37.37 0 0 1-.066 0 .65.65 0 0 0-.306-.087c-.04 0-.08.004-.119.011a1.142 1.142 0 0 0-.895.512 1.02 1.02 0 0 1-.169.173 2.304 2.304 0 0 0-.244.242c-.1.123-.184.257-.251.4l-.114-.032-.457-.123-.379-.105-.322-.09-.16.254-.456-.032a1.19 1.19 0 0 0-.505-.1 1.452 1.452 0 0 0-.986.354 5.438 5.438 0 0 0-.336.351c-.107.123-.19.208-.29.304-.29.278-.586.552-.88.824l-.458.427-.148.19v.193l-.025.375.363.091.052.014v.043l.012 1.418.628-.913h.055l.21-.023h.086l.204-.023a1.818 1.818 0 0 0-.037.194.774.774 0 0 1-.064.247 1.105 1.105 0 0 0-.169.605c.023.41-.05.64-.256.815-.089.076-.166.165-.228.265a.797.797 0 0 1-.05.073l-.149.18-.525.642.08-.178.165-.37c.054-.123.086-.208.127-.313l.053-.13.07-.411-.346-.192-.174-.096-.19.064-.198.069-.272.093c-.116-.443-.525-.607-.742-.685l-.045-.018a.642.642 0 0 0-.112-.034 12.415 12.415 0 0 1-.053-.251c-.043-.208-.086-.418-.143-.621a.984.984 0 0 0-.48-.653l-.12-.055a2.055 2.055 0 0 0-.887-.244c-.103 0-.207.011-.308.034-.313.056-.588.24-.76.507l-.26.456.21.096a2.74 2.74 0 0 0-.229.382c-.018.036-.032.057-.034.063a.386.386 0 0 1-.094-.02l-.125-.043a1.934 1.934 0 0 0-.662-.144 1.237 1.237 0 0 0-.685.203.614.614 0 0 1-.336.096.943.943 0 0 1-.457-.13c-.15-.085-.294-.185-.436-.283l-.216-.149a.913.913 0 0 0-.505-.16.945.945 0 0 0-.37.08.772.772 0 0 0-.336-.495 4.9 4.9 0 0 0-.58-.279.58.58 0 0 0-.228-.045c-.379 0-.87.39-.874.806v.036l-.228-.016c-.254-.2-.566-.309-.889-.31-.2 0-.398.04-.584.116-.192.08-.375.179-.548.295l-.283-.053-.187-.03h-.085a.845.845 0 0 0-.774-.673.97.97 0 0 0-.228.025.671.671 0 0 0-.228-.183l-.204-.096-.011-.066a2.84 2.84 0 0 0-.527-.892v-.03l.054-.806-.712.379-.148.082c-.083.05-.168.093-.256.133l-.069-.032-.41-.19-.019-.116-.043-.283-.274-.083-.107-.036a1.011 1.011 0 0 0-.352-.073 2.098 2.098 0 0 0-.489.068.584.584 0 0 0-.228.119 10.27 10.27 0 0 1-.728.18c-.245.048-.457.076-.685.11l-.322.048-.292.046-.1.285a.756.756 0 0 0-.014.304.486.486 0 0 0-.099.143l-.048.146a.724.724 0 0 0-.089.076l-.2.2h-.053a.76.76 0 0 0-.228.035h-.028a1.317 1.317 0 0 0-.141 0 .626.626 0 0 0-.215.037l-.418-.546-.093.228a1.598 1.598 0 0 0-.242-.08l-.069-.018-.039-.014h-.04a1.418 1.418 0 0 0-.215-.016 1.57 1.57 0 0 0-1.012.414l-.354-.457-.274.76-.143.4-.149.415-.08.229.137.191a.856.856 0 0 1 .046.078c.042.082.094.159.155.228l-.434.188.336.191-.228.439-.1.196.093.199.023.045a2.704 2.704 0 0 0-.194-.054.664.664 0 0 1-.229-.09.498.498 0 0 0-.294-.118l-.146-.032c-.334-.069-.546-.119-.685-.292a.635.635 0 0 0-.053-.058l.356-.28-.066-.083.183-.102v-.076h.096l.064-.413c0-.066.016-.132.02-.198.005-.067 0-.124.012-.135a.685.685 0 0 0 .082-.564.7.7 0 0 0-.411-.42c-.07-.03-.14-.055-.213-.076l-.118-.034a.505.505 0 0 0-.443-.228h-.08a.685.685 0 0 0-.228-.272.65.65 0 0 0-.103-.34l.244-.043-.557-.603-.073-.082a.801.801 0 0 0-.228-.203.26.26 0 0 1-.09-.179c.05-.627-.305-.803-.52-.853a.77.77 0 0 1-.107-.037 1.574 1.574 0 0 0-.146-.05v-.044a1.265 1.265 0 0 0-.06-.296.824.824 0 0 1-.016-.188c0-.11-.01-.221-.03-.33a.685.685 0 0 0 .229-.313L3.247 27l.118-.032.42-.112-.098-.422a.555.555 0 0 0-.283-.372l.532-.567a.82.82 0 0 0 .034-1.16l-.013-.018a.685.685 0 0 0 0-.456 2.14 2.14 0 0 0-.062-.229c0-.036-.027-.084-.034-.118.078-.229.096-.473.052-.71.142.141.274.274.411.406a.733.733 0 0 0-.061.425c.016.116.036.228.057.349l.022.135.055.322.286.04c.022.019.057.056.082.078a.989.989 0 0 0 .712.361.913.913 0 0 0 .365-.08l.336-.146-.043-.205.13.04.897.288-.342-.879a29.007 29.007 0 0 1-.071-.175c-.023-.058-.057-.137-.075-.195.08-.061.164-.123.258-.187l.123.11.561.502.174-.733.025-.118c0-.026 0-.048.016-.076l.039.039.4.411.294-.49.08-.138c.048-.082.093-.162.146-.228l.034-.05a.93.93 0 0 1 .128-.163c.21-.14.43-.266.658-.376a.943.943 0 0 1 .125-.028l.121-.022a.703.703 0 0 0 .418.253l.215.057.175-.137a.833.833 0 0 0 .137-.137 1.025 1.025 0 0 0 .514-.048l.228.582.51-.486a.881.881 0 0 0 .157-.169.598.598 0 0 0 .05-.087.685.685 0 0 0 .336-.557c.112.043.22.098.322.162.372.247.646.457.783.795l.354.89.025-.048v.108c.032.723.605.748.913.76h.18l.135-.119.135-.119c.1-.086.183-.16.265-.228a1.425 1.425 0 0 0 .29-.404c0-.014.011-.025 0-.025.073-.067.137-.144.19-.228a.57.57 0 0 0 .05.08.621.621 0 0 0 .509.228c.09-.001.178-.014.264-.039l1.062-.297-.847-.456a.457.457 0 0 0 .018-.343c0-.034-.02-.068-.03-.105a1.03 1.03 0 0 0-.255-.518l-.043-.044a.884.884 0 0 0-.651-.33.779.779 0 0 0-.123 0c0-.067.01-.134.032-.197a1.8 1.8 0 0 0 .125-.605l.146.07.411.2.84.404a.669.669 0 0 0 .457.388l.251.073.187-.183c.278-.24.404-.61.331-.97a1.073 1.073 0 0 1 .014-.272c0-.08.018-.157.027-.27a.685.685 0 0 0-.143-.534 3.18 3.18 0 0 0-.555-.53.845.845 0 0 0-.046-.422l.244-.025c.295-.032.59-.061.882-.1a.797.797 0 0 0 .495-.304.642.642 0 0 0 .144-.488.578.578 0 0 0-.046-.158l.115-.114-.048-.08.095-.176a.717.717 0 0 0 .286-.21.646.646 0 0 1 .41-.228c.204-.044.405-.105.604-.165l.063-.018a.966.966 0 0 0 .215-.1l.03-.016.429.03h.041c.091.052.194.08.3.08a.685.685 0 0 0 .456-.2l.86.857-.093-1.224v-.13a.584.584 0 0 0 .338-.228c.099-.15.127-.337.077-.51l.1-.17.131.173.381-.242-.007.004zm-9.787 4.3l.146.043c-.023.068-.05.134-.082.198a2.072 2.072 0 0 0-.094.229.795.795 0 0 0 .073.7c.06.085.053.181.018.416l-.013.096c-.046.336-.073.671-.1 1.01v.09a.61.61 0 0 0 .182.457.73.73 0 0 0-.09.354.555.555 0 0 1-.111.15l-.48.049.07.228-.047.011-.178.046.267-.493.229-.42.116-.197-.091-.203-.069-.157c-.052-.121-.096-.229-.148-.318a.927.927 0 0 0-.228-.303c.025-.09.057-.176.086-.263l.06-.178.116-.356-.217-.116.05-.04c.245-.196.411-.474.469-.782.016-.086.038-.17.066-.252zm2.456.764l.067.069c.086.095.18.182.283.26-.051.147-.073.302-.064.457a.82.82 0 0 1 0 .13c-.01.045-.019.09-.023.137l-.167-.571-.093-.32-.041-.127.045-.032-.007-.003zM3.957 20.728c.02.017.043.031.066.044.048.028.093.059.137.093a1.164 1.164 0 0 0 .845.288s.034.011.111.103l.037.043c.234.323.549.578.913.74a.77.77 0 0 1 .128.315.347.347 0 0 1-.297.18.178.178 0 0 1-.055 0l-.146-.045a30.31 30.31 0 0 1-.641-.21.475.475 0 0 1-.069-.046l-.228-.162-.333-.229-.12-.08h-.138c-.07 0-.14.016-.204.046a.993.993 0 0 0-.228-.685.57.57 0 0 1-.046-.066.623.623 0 0 1 .069-.068c.056-.053.109-.11.158-.17.016-.02.031-.04.05-.059l-.01-.032zm42.687 5.016l.011.146a.765.765 0 0 0-.203.277v-.215l.046.025.144-.228.002-.005zM39.04 30.01a.817.817 0 0 0 .014.228l.107.357h.039v.036l-.03.034c-.188.19-.297.444-.306.71l-.077.035a.785.785 0 0 0-.457.58.865.865 0 0 0-.205.12c0-.077-.012-.157-.016-.228a6.069 6.069 0 0 1 .048-.858l.016-.15.043-.058.228-.297.055-.073.05-.032c.145-.085.278-.188.397-.306l.099-.105-.005.007zm-7.836 5.701l-.025.014h.032l-.007-.014zm-6.707-22.116c-.414.19-.617.566-.827.933a.267.267 0 0 0 0 .192c.053.162.018.251-.164.26-.14 0-.276.026-.457.042.07.068.133.145.185.228.024.102.035.207.032.313l-.33-.33c-.083.104-.171.201-.266.293a.32.32 0 0 1-.194.112.194.194 0 0 1-.132-.064.105.105 0 0 0-.071-.018h-.103l.053-.229-.868.062v.05l.18.121c-.059.038-.122.07-.187.096-.21.064-.417.128-.632.176a1.091 1.091 0 0 0-.671.388c-.057.073-.176.096-.25.133l-.228.406-.2-.144-.062.046.178.251-.153.153c.112.107.329.173.169.383a.347.347 0 0 1-.199.133c-.401.055-.806.091-1.21.137a.374.374 0 0 0-.283.589.374.374 0 0 1 .03.228c-.042.161.03.33.176.411.18.149.342.32.48.51.038.047.015.15.013.228a2.705 2.705 0 0 0-.03.614.578.578 0 0 1-.212.561c-.17-.05-.208-.175-.165-.353a1.03 1.03 0 0 0 .021-.229c0-.171-.02-.34.18-.438.06-.03.08-.142.115-.21-.021-.028-.03-.048-.04-.048h-.018c-.344 0-.504-.276-.726-.475a.566.566 0 0 0-.374-.192.913.913 0 0 0-.422.16l.146.158-.304.228-.15-.228-.076.016c.018.098 0 .228.062.292.118.107.245.204.381.287l.052-.052.094.32-.831-.407c.032-.06.075-.103.069-.132-.083-.279.052-.541.054-.813a2.098 2.098 0 0 0-.068-.388h-.09c-.006.09-.006.181 0 .272a.345.345 0 0 1-.193.415.881.881 0 0 0-.19.137.368.368 0 0 0-.13.49c.025.049.034.106.062.152a.913.913 0 0 1 .03.863 1.402 1.402 0 0 0-.03.685c0 .057.205.139.326.139.02.004.042.004.062 0a.397.397 0 0 1 .155-.034c.174 0 .276.148.381.248.088.135.147.287.172.446 0 .013-.019.04-.032.059-.206.28-.201.301.102.468a.541.541 0 0 1-.143.023c-.13 0-.204-.069-.17-.19.07-.298.006-.613-.175-.86-.11.022-.228.048-.35.075-.228.053-.32.194-.228.411a.47.47 0 0 1-.12.589 1.265 1.265 0 0 0-.156.256c-.04.064-.088.124-.142.178-.11.105-.228.2-.385.342-.4-.016-.473-.06-.484-.33l.504-.129-.048-.153a.774.774 0 0 0 .432-.497.566.566 0 0 1 .043-.229.384.384 0 0 0-.064-.525c-.03-.034-.07-.08-.068-.118.03-.359.057-.72.105-1.076.038-.287.107-.564-.083-.83a.358.358 0 0 1-.018-.289c.092-.246.251-.456.213-.753-.016-.116-.037-.183-.163-.21a4.749 4.749 0 0 1-.538-.16.292.292 0 0 0-.096-.02c-.076 0-.121.045-.151.139-.055.178-.13.351-.167.534a.868.868 0 0 1-.328.534c-.14.112-.347.208-.229.457.014.03-.048.09-.077.142l.228.118c-.062.192-.135.382-.183.576-.034.137-.089.294.146.34.062.011.115.114.151.182.066.126.119.26.203.457l-.228.42c-.194-.486-.575-.753-.952-1.002a3.653 3.653 0 0 0-.854-.368.192.192 0 0 0-.062 0 .21.21 0 0 0-.191.277c.098.228.137.401-.149.509-.043.016-.05.114-.084.166a.847.847 0 0 1-.121.12.963.963 0 0 1-.053-.156c-.016-.11-.025-.228-.04-.38-.081.045-.158.096-.23.154a.584.584 0 0 1-.426.203.614.614 0 0 1-.185-.03.288.288 0 0 0-.085-.013c-.162 0-.207.178-.315.262-.166-.043-.212-.155-.2-.317a1.062 1.062 0 0 0-.037-.242l-.192.171a.192.192 0 0 0-.1-.043c-.064 0-.057.098-.057.148-.131.019-.26.05-.384.096-.246.12-.483.255-.71.406-.108.09-.2.196-.272.315-.086.124-.157.26-.244.402-.644-.63-.644-.648-.064-.847-.027-.424-.091-.477-.833-.648.28.278.173.568.105.858-.014.057-.025.144 0 .176.171.169.091.34.03.518-.035.1-.053.21-.08.325l-.389-.347c-.255.184-.488.333-.696.513a.35.35 0 0 0-.048.286c.05.168.112.333.185.493l-.685-.229-.37-.324c-.038.135-.105.242-.077.3.07.11.156.212.253.3l.07-.05.067.316a.47.47 0 0 1-.187.043c-.308 0-.436-.393-.685-.43-.027-.164-.057-.314-.078-.47a.292.292 0 0 1 .019-.162.365.365 0 0 0-.046-.484c-.212-.205-.42-.418-.662-.657.052-.03.106-.055.162-.078.187.128.372.265.557.395a.733.733 0 0 0 .176.1c.265.092.534.176.801.263.062.02.127.03.192.03.314.003.6-.181.726-.468.082-.229-.114-.786-.365-.877a1.936 1.936 0 0 1-.797-.664.598.598 0 0 0-.457-.263h-.125c-.267 0-.43-.212-.64-.326-.018 0 0-.067-.016-.105l.258.05.023-.069-.267-.153v.06a2.27 2.27 0 0 0-.267.066.959.959 0 0 0-.272.135c-.093.075-.16.187-.25.269-.275.249-.3.457-.076.744a.555.555 0 0 1 .046.699.648.648 0 0 0-.05.37c.052.317.177.614.038.956-.06.147.057.363.091.548.014.073.055.16.028.215a.4.4 0 0 0 .091.47.372.372 0 0 1-.02.56l-.884.943.137.018c-.105.354.342.185.388.386-.137.036-.27.066-.395.11-.039.013-.089.063-.089.095 0 .247-.176.304-.358.36v.094c.196.243.075.548.166.806.076.215-.027.528.338.617.094.023.192.075.304.1.192.044.185.229.173.38-.01.243.11.473.315.604.055.032.092.094.19.201l-.457.08.085.457c.132-.025.265-.042.4-.05h.036a.212.212 0 0 1 .217.294.178.178 0 0 0 0 .087c.05.164.308.119.317.377 0 .125.133.169.272.169a.833.833 0 0 0 .167-.019h.025c.025 0 .052 0 .061.019.124.198.347.205.532.285.185.08.229.144.124.338-.056.156-.085.32-.087.486h-.15c-.147 0-.268.043-.293.265l.242.016v.039l-.404.173.141.176-.456.363c.059.053.137.128.228.194s.16.08.21.144c.288.356.712.395 1.114.486.023 0 .053 0 .069.014.185.162.424.169.632.249.208.08.377.365.56.56l.187.013a.322.322 0 0 0 .032-.397 3.856 3.856 0 0 1-.11-.443 4.123 4.123 0 0 0-.19-.414l.327-.639.094.146.228-.191-.164-.094.185-.08c-.058-.208-.096-.395-.368-.432-.085 0-.144-.184-.228-.296l.292-.815.242.306h.068l.048-.322a1.3 1.3 0 0 1 .854-.42c.05 0 .1.003.149.011.127.026.25.071.363.135.102.1.19.215.26.34l.055-.14c.073.096.144.163.228.163a.3.3 0 0 0 .185-.083.142.142 0 0 1 .091-.025c.06 0 .128.014.192.014a.228.228 0 0 0 .08-.011.36.36 0 0 1 .12-.025c.083 0 .136.05.2.143.04.065.107.107.182.117a.171.171 0 0 0 .128-.064.082.082 0 0 1 .06-.016h.054c.05.014.103.023.155.025.105 0 .147-.062.204-.228l-.414-.306c.12-.119.382-.117.229-.363a.372.372 0 0 1 .137-.094c.07-.016.146 0 .228-.027-.185-.096-.283-.229-.242-.388.352-.055.685-.094 1.02-.16.284-.055.564-.133.843-.21.055-.014.094-.082.148-.096.132-.034.267-.051.402-.053.112.018.222.048.327.092l.07.477.21-.016.412.19-.076.132.03.055c.16-.048.324-.087.477-.149.153-.061.29-.15.457-.228 0 .116-.044.228-.012.249.411.324.519.824.745 1.255l.102.2.176-.188c.126.06.158.274.308.274a.228.228 0 0 0 .082-.018.667.667 0 0 1 .25-.058c.177 0 .303.112.387.338a.443.443 0 0 0 .183.229c.138.046.28.075.425.086l.077.313c.051-.018.101-.04.149-.066.272-.189.558-.357.856-.502a1.005 1.005 0 0 1 1.084.176.228.228 0 0 0 .128.043c.24.02.482.034.742.052.012-.182.032-.347.032-.511 0-.164.254-.37.416-.37a.132.132 0 0 1 .052 0c.181.073.358.158.528.254.064.049.108.12.123.2.05.247.19.386.386.386a.557.557 0 0 0 .228-.052.502.502 0 0 1 .203-.048.457.457 0 0 1 .258.087c.229.15.457.315.685.456.205.12.437.184.674.187.204.002.405-.056.577-.166a.783.783 0 0 1 .432-.133c.223.02.442.076.648.165.074.026.15.04.229.043a.457.457 0 0 0 .436-.326c.099-.198.218-.385.354-.56.095-.13.073-.228-.115-.308a.685.685 0 0 1 .482-.31.945.945 0 0 1 .21-.023c.29.028.571.117.824.262.12.087.2.216.229.361.091.329.144.667.228 1 .022.06.066.11.123.14.067.036.153.036.229.063.274.112.561.203.536.6 0 .133.09.206.228.206.055 0 .11-.009.163-.025.214-.066.427-.144.639-.228l.066.036c-.057.144-.112.29-.173.432-.099.228-.204.456-.304.685-.044.1-.098.155-.178.155a.308.308 0 0 1-.133-.037.169.169 0 0 0-.075-.016c-.132 0-.288.126-.26.229a.578.578 0 0 1-.17.634c-.015.014 0 .058-.013.16l.377-.312c.037.047.076.093.119.136a.352.352 0 0 0 .248.106.514.514 0 0 0 .229-.06.945.945 0 0 0 .299-.228c.358-.42.705-.85 1.055-1.279.061-.1.132-.193.21-.28.37-.316.436-.727.413-1.18a.685.685 0 0 1 .107-.352 1.95 1.95 0 0 0 .155-.578c.094-.381-.278-.475-.367-.733-.014-.043-.167-.037-.267-.055l-.057.272-.297.032-.034-.297-.165.228v-.388l-.388-.098v-.084c.457-.418.913-.831 1.347-1.256.228-.208.407-.457.626-.655.193-.157.436-.238.685-.229.13-.008.26.025.37.094l.837.057.126-.199.826.229-.292.15v.076l1.057-.092v-.043c-.066-.062-.2-.148-.19-.178.059-.155.141-.3.245-.43.162-.141.315-.294.457-.456.153-.246.383-.272.618-.308h.012c.055 0 .116.052.176.068.075.016.151.027.228.035-.07.175-.228.383 0 .582.256-.098.384-.482.756-.482h.018a.413.413 0 0 1 .187-.5.3.3 0 0 1 .162-.057.203.203 0 0 1 .183.132c-.35.144-.27.521-.42.774-.025.044-.03.12-.062.133-.6.253-.936.792-1.37 1.235-.136.12-.284.227-.44.32-.117.157-.229.294-.32.436-.043.061-.112.123-.119.187-.05.384-.074.772-.073 1.16.018.456.103.913.165 1.402.228-.188.456-.325.486-.621.03-.297.228-.29.44-.343 0-.2 0-.41.229-.516a.397.397 0 0 1 .155-.05h.066c.165 0 .204-.096.144-.254-.116-.31.11-.456.272-.684l.025.228h.089c0-.096.043-.228 0-.279-.128-.144-.073-.267-.018-.406.02-.075.034-.151.039-.228h-.252c-.048-.245.153-.398.252-.587.06-.094.116-.192.166-.292.073-.194.192-.265.306-.265h.055l.358-.263.09.076v.2c.17-.082.36-.244.545-.244h.012c.191 0 .376.187.54.279.106-.087.243-.194.377-.306.089-.082.182-.158.279-.229a5.208 5.208 0 0 1 1.141-.623c.1-.042.206-.068.313-.077a.963.963 0 0 1 .38.132c.228-.119.086-.329.095-.49a1.06 1.06 0 0 0-.105-.423c-.046-.117-.05-.263-.228-.304-.05-.011-.071-.146-.105-.228l.05-.053.329.108c.112-.09.265-.195.4-.322.134-.128.228-.258.075-.441a.19.19 0 0 1 0-.185.57.57 0 0 1 .228-.062l.07-.016v.516H45.602c.175 0 .276.067.26.27-.016.203.068.258.255.317.169.086.323.196.46.327.036-.09.214-.112.082-.252v-.022c0-.007.01-.096.03-.1.191-.051.116-.396.35-.396.033.001.066.006.097.016l-.019-.214.149.086.228-.248c-.093-.135-.212-.279-.301-.439a.457.457 0 0 0-.457-.228h-.093l-.124-.11-.187.304c-.288-.153.02-.617-.333-.797v.212c-.128-.182-.229-.32-.32-.456a1.237 1.237 0 0 0-.137-.144c-.119-.116-.242-.228-.358-.347-.025-.025-.035-.073-.062-.094a27.307 27.307 0 0 1-.913-.714 1.304 1.304 0 0 0-.756-.254 8.199 8.199 0 0 1-.886-.18.39.39 0 0 0-.075 0h-.165c.035.116-.137.2-.018.35.199.246.14.374-.212.58a.872.872 0 0 1-.473-.841.671.671 0 0 1-.456.205 1.393 1.393 0 0 1-.537-.166.525.525 0 0 0-.21-.037c-.132 0-.276.03-.409.041-.068 0-.13.08-.18.115l-.457-.318c.016-.052.03-.112.05-.169a.58.58 0 0 0-.495-.783c-.276-.023-.555-.064-.83-.064a1.982 1.982 0 0 0-.542.069h-.032a1.315 1.315 0 0 1-.265-.085l.176-.276-.377-.169a.498.498 0 0 1-.084-.03c-.128-.089-.254-.182-.409-.294l.229-.149c0-.162-.074-.264-.263-.322-.65-.194-1.297-.404-1.945-.607a.28.28 0 0 0-.08-.014.068.068 0 0 0-.069.037c-.056.14-.133.27-.228.388a.703.703 0 0 0-.217.655 4.089 4.089 0 0 1-.431.26.301.301 0 0 1-.238-.002 2.776 2.776 0 0 1-.342-.244c-.112-.08-.178-.123-.229-.123-.05 0-.105.066-.178.208h-.052c-.324 0-.327-.325-.491-.576l-.393 1.03c-.125-.09-.228-.153-.324-.228a.74.74 0 0 1-.146-.2 1.749 1.749 0 0 1-.187-.39.354.354 0 0 1 .057-.285.406.406 0 0 0 .116-.482.331.331 0 0 1 0-.182.685.685 0 0 0-.456-.767h-.02a.525.525 0 0 1-.16.025c-.3 0-.49-.286-.759-.38-.249.099-.271.293-.228.533a.205.205 0 0 1-.082.18c-.122.042-.25.064-.38.064a1.65 1.65 0 0 1-.805-.244c-.057-.032-.041-.192-.07-.34a2.724 2.724 0 0 0-.8-.206.913.913 0 0 0-.5.15l.13.17-.228.08-.05-.665c-.058.135-.133.18-.208.18a.292.292 0 0 1-.206-.107c-.116-.134-.28-.123-.433-.271l-.156.356.064.036.229-.116.054.023c-.018.048-.027.13-.059.141-.324.114-.6.38-.932.38a.621.621 0 0 1-.175-.026l-.215.228-.057-.05c.13-.173.256-.35.393-.518a.19.19 0 0 1 .12-.066h.014a.324.324 0 0 0 .083.011c.127 0 .2-.093.278-.196.112-.16.235-.313.368-.457.11-.112.258-.185.379-.29.242-.21.484-.42.703-.653.052-.055.02-.192.025-.253l-.26-.26.039-.04.16.151c.294-.228-.017-.415 0-.62l-.067.034c-.039-.041-.11-.083-.112-.126a.847.847 0 0 0-.52-.62 2.808 2.808 0 0 1-.327-.04.685.685 0 0 0-.164-.023.384.384 0 0 0-.347.229c-.046.075-.206.08-.313.116l-.039-.066c.08-.096.17-.187.242-.29.144-.199.108-.276-.125-.331a2.484 2.484 0 0 1-.32-.128l-.128.057-.043-.057c.08-.055.162-.105.228-.169.183-.157.16-.329-.052-.456-.085-.053-.165-.11-.247-.167h-.14l.017-.018z"/>
    </g>
</svg>
