<svg xmlns="http://www.w3.org/2000/svg" width="50" height="50" viewBox="0 0 50 50">
    <g fill="none" fill-rule="evenodd">
        <path fill="#666" d="M49.66 24.93a23.76 23.76 0 0 1-.482 4.874 22.247 22.247 0 0 1-.648 2.54 23.658 23.658 0 0 1-1.003 2.63c-.356.815-.76 1.607-1.21 2.373-.207.36-.424.721-.657 1.073-.233.352-.489.722-.747 1.073a24.99 24.99 0 0 1-1.956 2.356c-.24.25-.473.498-.722.729a24.692 24.692 0 0 1-13.696 6.81c-.16.025-.32.041-.482.057-.256.032-.504.057-.762.08h-.106c-.216.025-.424.041-.641.057-.473.025-.945.048-1.427.048h-.169c-.425 0-.85 0-1.274-.032a2.123 2.123 0 0 1-.228-.016c-.08 0-.16 0-.24-.016-.265-.016-.52-.04-.778-.064l-.24-.025c-.28-.024-.561-.056-.843-.096A24.772 24.772 0 0 1 4.74 39.144a23.395 23.395 0 0 1-.986-1.507A24.696 24.696 0 0 1 24.85.228h.201a24.68 24.68 0 0 1 11.824 3.055l.368.201A24.715 24.715 0 0 1 49.66 24.929z"/>
        <path fill="#151515" fill-rule="nonzero" d="M25.114 49.86h-.169c-.429 0-.858 0-1.287-.031-.077 0-.153-.005-.229-.016h-.237a22.09 22.09 0 0 1-.774-.064l-.242-.025a15.93 15.93 0 0 1-.852-.096 25.007 25.007 0 0 1-16.77-10.359 23.191 23.191 0 0 1-.992-1.52A24.98 24.98 0 0 1 0 24.929C0 11.233 11.148.048 24.85 0h.2a25.064 25.064 0 0 1 11.936 3.082l.368.201a25.027 25.027 0 0 1 12.534 21.649 24.084 24.084 0 0 1-.486 4.92 22.614 22.614 0 0 1-.658 2.568c-.284.904-.622 1.79-1.011 2.653-.36.821-.768 1.621-1.222 2.395-.248.43-.456.774-.664 1.085a25.27 25.27 0 0 1-2.724 3.457l-.144.15c-.194.2-.385.402-.586.589a24.99 24.99 0 0 1-10.699 6.2 26.027 26.027 0 0 1-3.112.663 8.95 8.95 0 0 1-.415.05l-.103.098-.087-.077a23.59 23.59 0 0 1-.666.068h-.126c-.194.023-.404.039-.626.055-.484.03-.959.055-1.445.055zM24.85.458C11.395.497.457 11.479.457 24.929a24.537 24.537 0 0 0 3.495 12.598c.253.416.594.962.975 1.491a24.553 24.553 0 0 0 16.461 10.146c.276.04.552.072.829.096l.244.025c.254.026.507.048.77.064h.248c.068.01.136.015.204.016.433.025.854.032 1.274.032h.157c.477 0 .948-.023 1.416-.048.207-.016.413-.032.628-.054h.13c.228-.023.48-.048.733-.078l.11-.014c.125-.014.253-.027.378-.045a25.708 25.708 0 0 0 3.06-.651 24.541 24.541 0 0 0 10.502-6.094c.2-.187.386-.379.573-.575l.144-.149a24.854 24.854 0 0 0 2.675-3.399c.238-.358.443-.706.651-1.062a22.77 22.77 0 0 0 1.199-2.351c.382-.848.714-1.718.993-2.605.264-.824.479-1.663.644-2.512.324-1.59.484-3.208.477-4.83A24.575 24.575 0 0 0 37.123 3.673l-.365-.2A24.612 24.612 0 0 0 25.05.458h-.2z"/>
        <path fill="#FFF" d="M46.317 37.347c-.207.36-.424.721-.657 1.073-.233.352-.489.722-.747 1.073a24.99 24.99 0 0 1-1.956 2.356c-.24.25-.473.498-.722.729a24.692 24.692 0 0 1-13.696 6.81c-.16.025-.32.041-.482.057v-2.052l-.2-6.918-.097-3.126h4.203v-5.91h2.245v-6.75h1.073v-3.824h.961v-2.79h.874V11.6h.327v6.475h.881v2.79h.97v3.824h1.067v6.75h2.237v5.908h3.72z"/>
        <path fill="#151515" fill-rule="nonzero" d="M28.06 49.756l-.229-.229v-2.143l-.304-10.274h4.208v-5.895h2.244v-6.75h1.076v-3.823h.961v-2.79h.874v-6.478h.781v6.478h.882v2.79h.97v3.824h1.066v6.749h2.237v5.908h3.882l-.194.338c-.25.432-.457.776-.665 1.085a25.27 25.27 0 0 1-2.726 3.463l-.144.15c-.194.202-.385.403-.586.59a24.99 24.99 0 0 1-10.699 6.2 26.027 26.027 0 0 1-3.112.663 8.95 8.95 0 0 1-.415.05l-.108.094zm-.085-12.185l.29 9.817v1.81l.24-.03a25.708 25.708 0 0 0 3.059-.65 24.541 24.541 0 0 0 10.502-6.093c.201-.188.386-.38.573-.576l.144-.148a24.854 24.854 0 0 0 2.676-3.4c.157-.228.308-.48.457-.723h-3.55v-5.914h-2.238v-6.748h-1.066V21.09h-.97v-2.79h-1.635v2.79h-.962v3.825H34.42v6.748h-2.244v5.91l-4.201-.003z"/>
        <path fill="#484747" d="M9.72 31.315H6.538c-.621-.018-.996-1.039.034-1.573A5.087 5.087 0 0 0 8.128 28.6c.438.475.963.863 1.546 1.142 1.043.532.666 1.555.045 1.573z"/>
        <path fill="#151515" fill-rule="nonzero" d="M8.14 31.548H6.54a.87.87 0 0 1-.799-.699c-.091-.397.057-.945.74-1.299a4.975 4.975 0 0 0 1.484-1.077.228.228 0 0 1 .351 0c.421.447.921.812 1.475 1.077.685.354.831.913.74 1.3a.87.87 0 0 1-.801.698H8.139zm0-2.614a6.135 6.135 0 0 1-1.453 1.007c-.388.2-.577.5-.509.799a.42.42 0 0 0 .377.349h3.157a.42.42 0 0 0 .377-.35c.069-.3-.121-.6-.51-.798a6.146 6.146 0 0 1-1.44-1.007z"/>
        <path fill="#484747" d="M17.514 27.084c-.229 0-.646.019-1.197.019h-3.95c-.55 0-.979 0-1.196-.019-1.24-.034-1.99-2.08.078-3.152 2.2-1.142 3.093-2.254 3.093-2.254s.89 1.11 3.1 2.254c2.063 1.075 1.311 3.118.072 3.152z"/>
        <path fill="#151515" fill-rule="nonzero" d="M16.317 27.329h-3.95c-.554 0-.986 0-1.205-.018a1.514 1.514 0 0 1-1.386-1.22c-.164-.712.112-1.705 1.37-2.358 2.123-1.105 3.01-2.185 3.01-2.196a.228.228 0 0 1 .175-.085c.068 0 .133.031.176.085 0 0 .897 1.09 3.03 2.196 1.255.655 1.527 1.648 1.37 2.358a1.516 1.516 0 0 1-1.391 1.22c-.217.009-.646.018-1.199.018zm-1.975-5.315a11.516 11.516 0 0 1-2.988 2.118c-.877.457-1.304 1.142-1.142 1.861.089.478.49.835.975.868.229 0 .644.018 1.192.018h3.95c.545 0 .97 0 1.187-.018.483-.038.88-.396.966-.872.164-.71-.26-1.405-1.142-1.859a11.5 11.5 0 0 1-2.998-2.116z"/>
        <path fill="#484747" d="M22.146 31.315h-3.18c-.621-.018-.996-1.039.034-1.573a5.087 5.087 0 0 0 1.555-1.142c.438.475.963.863 1.545 1.142 1.03.532.656 1.555.046 1.573z"/>
        <path fill="#151515" fill-rule="nonzero" d="M20.548 31.548H18.95a.87.87 0 0 1-.8-.699c-.09-.397.058-.945.74-1.299a4.982 4.982 0 0 0 1.484-1.077.228.228 0 0 1 .176-.085c.069 0 .133.032.176.085.421.447.921.812 1.475 1.077.685.354.831.913.74 1.3a.87.87 0 0 1-.795.689c-.228.009-.865.009-1.598.009zm0-2.614a6.135 6.135 0 0 1-1.452 1.007c-.388.2-.578.5-.51.799a.42.42 0 0 0 .377.349h3.158a.42.42 0 0 0 .377-.35c.068-.3-.121-.6-.51-.798a6.137 6.137 0 0 1-1.44-1.007z"/>
        <path fill="#FFF" d="M22.19 31.352v18.132c-.28-.024-.561-.056-.843-.096-5.74-.846-11-3.687-14.854-8.025V31.352h4.057v-4.25h7.582v4.25h4.057z"/>
        <path fill="#151515" fill-rule="nonzero" d="M22.19 49.708h-.021c-.285-.025-.57-.057-.854-.098A24.975 24.975 0 0 1 6.326 41.51a.228.228 0 0 1-.057-.148V31.352c0-.126.103-.229.229-.229h3.826v-4.02c0-.126.102-.229.229-.229h7.58c.126 0 .228.103.228.229v4.025h3.828c.127 0 .229.102.229.228V49.49a.228.228 0 0 1-.229.228v-.01zM6.716 41.276a24.52 24.52 0 0 0 14.662 7.888c.195.028.39.052.584.073V31.575h-3.83a.228.228 0 0 1-.229-.228v-4.02h-7.13v4.025a.228.228 0 0 1-.228.228h-3.83v9.696z"/>
        <path fill="#FFF" d="M17.514 27.084c-.229 0-.646.019-1.197.019h-3.95c-.55 0-.979 0-1.196-.019-1.24-.034-1.99-2.08.078-3.152 2.2-1.142 3.093-2.254 3.093-2.254s.89 1.11 3.1 2.254c2.063 1.075 1.311 3.118.072 3.152z"/>
        <path fill="#151515" fill-rule="nonzero" d="M16.317 27.329h-3.95c-.554 0-.986 0-1.205-.018a1.514 1.514 0 0 1-1.386-1.22c-.164-.712.112-1.705 1.37-2.358 2.123-1.105 3.01-2.185 3.01-2.196a.228.228 0 0 1 .175-.085c.068 0 .133.031.176.085 0 0 .897 1.09 3.03 2.196 1.255.655 1.527 1.648 1.37 2.358a1.516 1.516 0 0 1-1.391 1.22c-.217.009-.646.018-1.199.018zm-1.975-5.315a11.516 11.516 0 0 1-2.988 2.118c-.877.457-1.304 1.142-1.142 1.861.089.478.49.835.975.868.229 0 .644.018 1.192.018h3.95c.545 0 .97 0 1.187-.018.483-.038.88-.396.966-.872.164-.71-.26-1.405-1.142-1.859a11.5 11.5 0 0 1-2.998-2.116z"/>
        <path fill="#FFF" d="M22.146 31.315h-3.18c-.621-.018-.996-1.039.034-1.573a5.087 5.087 0 0 0 1.555-1.142c.438.475.963.863 1.545 1.142 1.03.532.656 1.555.046 1.573z"/>
        <path fill="#151515" fill-rule="nonzero" d="M20.548 31.548H18.95a.87.87 0 0 1-.8-.699c-.09-.397.058-.945.74-1.299a4.982 4.982 0 0 0 1.484-1.077.228.228 0 0 1 .176-.085c.069 0 .133.032.176.085.421.447.921.812 1.475 1.077.685.354.831.913.74 1.3a.87.87 0 0 1-.795.689c-.228.009-.865.009-1.598.009zm0-2.614a6.135 6.135 0 0 1-1.452 1.007c-.388.2-.578.5-.51.799a.42.42 0 0 0 .377.349h3.158a.42.42 0 0 0 .377-.35c.068-.3-.121-.6-.51-.798a6.137 6.137 0 0 1-1.44-1.007z"/>
        <path fill="#FFF" d="M9.72 31.315H6.538c-.621-.018-.996-1.039.034-1.573A5.087 5.087 0 0 0 8.128 28.6c.438.475.963.863 1.546 1.142 1.043.532.666 1.555.045 1.573z"/>
        <path fill="#151515" fill-rule="nonzero" d="M8.14 31.548H6.54a.87.87 0 0 1-.799-.699c-.091-.397.057-.945.74-1.299a4.975 4.975 0 0 0 1.484-1.077.228.228 0 0 1 .351 0c.421.447.921.812 1.475 1.077.685.354.831.913.74 1.3a.87.87 0 0 1-.801.698H8.139zm0-2.614a6.135 6.135 0 0 1-1.453 1.007c-.388.2-.577.5-.509.799a.42.42 0 0 0 .377.349h3.157a.42.42 0 0 0 .377-.35c.069-.3-.121-.6-.51-.798a6.146 6.146 0 0 1-1.44-1.007z"/>
        <path fill="#FFF" d="M14.329 21.674v-2.729"/>
        <path fill="#151515" d="M14.103 18.945h1v2.728h-1z"/>
        <path fill="#FFF" d="M13.237 20.08h2.21"/>
        <path fill="#151515" d="M13.237 19.856h2.208v1h-2.208z"/>
        <path fill="#FFF" d="M27.288 49.523h-.105c-.217.025-.425.04-.642.057-.473.025-.945.048-1.427.048h-.169c-.424 0-.85 0-1.274-.032a2.123 2.123 0 0 1-.228-.016c-.08 0-.16 0-.24-.016-.265-.016-.52-.041-.778-.064l.593-1.893.27-.803.456-7.468.096-3.32.096-3.126.185-6.212a1.068 1.068 0 0 1-.553-.938v-.377c.005-.417.248-.794.626-.97l.16-5.427h-.249a.511.511 0 0 1-.514-.514v-2.66a.518.518 0 0 1 .514-.52h.658v-.914h-.217a.352.352 0 0 1-.242-.6.345.345 0 0 1 .249-.098h.216V4.025h.17v9.635h.216a.345.345 0 0 1 .352.345.352.352 0 0 1-.352.351h-.217v.913h.658a.518.518 0 0 1 .514.521v2.662a.511.511 0 0 1-.514.514h-.254l.16 5.427c.378.176.622.553.626.97v.377c0 .39-.211.75-.553.938l.185 6.212.096 3.126.096 3.32.457 7.47.265.81.561 1.779.016.048.037.08z"/>
        <path fill="#151515" fill-rule="nonzero" d="M25.114 49.86h-.169c-.429 0-.858 0-1.287-.031a2.3 2.3 0 0 1-.229-.016h-.237a22.09 22.09 0 0 1-.774-.064.228.228 0 0 1-.194-.29l.835-2.722.457-7.417.372-12.523a1.283 1.283 0 0 1-.55-1.06v-.376a1.31 1.31 0 0 1 .63-1.105l.15-5.067h-.015a.737.737 0 0 1-.738-.737v-2.66a.742.742 0 0 1 .738-.746h.434v-.457a.578.578 0 0 1-.564-.584.566.566 0 0 1 .568-.569v-9.41c0-.127.102-.23.228-.23h.17c.125 0 .228.103.228.23v9.41a.566.566 0 0 1 .568.569.578.578 0 0 1-.568.577v.457h.433a.742.742 0 0 1 .738.746v2.67a.737.737 0 0 1-.738.737h-.03l.151 5.066c.387.235.625.653.63 1.105v.377a1.28 1.28 0 0 1-.55 1.06l.373 12.529.456 7.436.859 2.696a.228.228 0 0 1-.037.197.228.228 0 0 1-.178.09v-.227l-.023.228h-.077a21.134 21.134 0 0 1-2.06.112zm-2.388-.545c.162.014.327.027.493.039h.249c.067.009.135.014.203.016.434.025.854.032 1.274.032h.17c.476 0 .947-.023 1.415-.048l.456-.039-.783-2.45a.24.24 0 0 1 0-.054l-.456-7.47-.377-12.665a.228.228 0 0 1 .114-.203.842.842 0 0 0 .438-.742v-.377a.863.863 0 0 0-.497-.767.228.228 0 0 1-.128-.197l-.183-5.417c0-.126.102-.229.228-.229h.25a.285.285 0 0 0 .287-.287v-2.665a.292.292 0 0 0-.288-.297h-.657a.228.228 0 0 1-.085-.016.228.228 0 0 1-.084.016h-.658a.292.292 0 0 0-.287.297v2.662a.29.29 0 0 0 .287.288h.25c.125 0 .227.102.227.228l-.16 5.427a.228.228 0 0 1-.127.197.863.863 0 0 0-.498.767v.376a.842.842 0 0 0 .438.742c.073.042.117.12.115.204l-.38 12.657-.472 7.48-.774 2.495zm1.827-35.425a.121.121 0 0 0-.128.12c0 .07.057.127.128.127h.216c.03 0 .058.005.085.016a.228.228 0 0 1 .084-.016h.217a.126.126 0 0 0 .09-.215.119.119 0 0 0-.09-.032h-.217a.228.228 0 0 1-.084-.016.228.228 0 0 1-.085.016h-.216z"/>
    </g>
</svg>
