<svg xmlns="http://www.w3.org/2000/svg" width="50" height="50" viewBox="0 0 50 50">
    <g fill="none" fill-rule="evenodd">
        <path fill="#FFF" d="M37.242 3.48l-.368-.201A24.68 24.68 0 0 0 25.05.229h-.2A24.705 24.705 0 0 0 3.75 37.643c.313.514.633 1.018.986 1.507a24.774 24.774 0 0 0 16.61 10.237c.28.04.56.072.842.096l.24.025c.256.025.514.048.779.064.08 0 .16 0 .24.016a21.567 21.567 0 0 0 1.502.048h.164c.482 0 .954-.025 1.427-.048.217-.016.425-.032.642-.057h.105c.255-.025.504-.048.762-.08.16-.016.32-.032.482-.057a24.692 24.692 0 0 0 13.705-6.813c.25-.228.482-.482.722-.728a24.989 24.989 0 0 0 1.954-2.356c.256-.354.505-.713.747-1.073.242-.361.456-.713.657-1.073.45-.767.854-1.559 1.21-2.373a23.65 23.65 0 0 0 1.003-2.63c.266-.833.482-1.682.648-2.54.328-1.605.49-3.238.482-4.875A24.715 24.715 0 0 0 37.242 3.479z"/>
        <path fill="#151515" fill-rule="nonzero" d="M25.114 49.86h-.169c-.429 0-.858 0-1.287-.031-.05 0-.158 0-.229-.016h-.237a22.296 22.296 0 0 1-.77-.064l-.248-.025a15.93 15.93 0 0 1-.852-.096A25.007 25.007 0 0 1 4.555 39.269a24.995 24.995 0 0 1-2.653-4.795A24.705 24.705 0 0 1 0 24.93C0 11.233 11.146.048 24.85 0h.2a25.062 25.062 0 0 1 11.936 3.082l.368.201a25.027 25.027 0 0 1 12.53 21.646 24.144 24.144 0 0 1-.487 4.92 23.998 23.998 0 0 1-1.667 5.224c-.36.821-.768 1.62-1.22 2.395-.21.363-.43.728-.665 1.085a25.242 25.242 0 0 1-2.724 3.457l-.146.152c-.194.201-.384.4-.587.59a24.982 24.982 0 0 1-10.696 6.2 25.95 25.95 0 0 1-3.114.662 8.975 8.975 0 0 1-.491.057h-.025c-.254.032-.5.055-.754.08h-.125c-.194.023-.407.039-.626.055-.48.03-.959.055-1.443.055zM24.85.458C11.395.497.457 11.479.457 24.929a24.532 24.532 0 0 0 3.495 12.598c.272.446.6.97.975 1.491a24.548 24.548 0 0 0 16.459 10.146c.275.04.552.072.829.096l.242.025c.258.026.509.048.769.064h.249c.067.01.135.015.203.016.434.025.854.032 1.274.032h.162c.477 0 .945-.023 1.416-.048.21-.016.413-.032.628-.054h.13c.228-.023.48-.048.733-.078h.034c.153-.016.306-.03.456-.053a25.63 25.63 0 0 0 3.06-.65 24.539 24.539 0 0 0 10.502-6.094c.201-.187.386-.379.573-.575l.144-.15a24.703 24.703 0 0 0 2.676-3.4c.237-.359.443-.706.65-1.062.446-.76.847-1.545 1.201-2.352.382-.848.714-1.718.994-2.605.263-.824.478-1.662.643-2.511a23.73 23.73 0 0 0 .478-4.831A24.575 24.575 0 0 0 37.13 3.678l-.365-.199A24.612 24.612 0 0 0 25.05.457h-.2z"/>
        <path fill="#151515" d="M2.39 27.192v-.094c.183-.057.361-.114.359-.36 0-.033.052-.083.089-.096.125-.044.258-.074.395-.11-.046-.203-.493-.034-.388-.386l-.137-.018.883-.943a.372.372 0 0 0 .02-.56.4.4 0 0 1-.09-.47c.027-.055-.014-.144-.028-.214-.034-.185-.15-.4-.091-.548.137-.343.011-.64-.039-.957a.648.648 0 0 1 .062-.368.555.555 0 0 0-.046-.698c-.228-.288-.199-.496.075-.744.092-.083.158-.192.251-.27a.961.961 0 0 1 .272-.135c.088-.027.177-.05.267-.066v-.064l.27.158-.023.068-.258-.05c0 .041 0 .096.016.105.228.123.4.359.705.322a.568.568 0 0 1 .516.258c.197.29.468.521.786.669.25.091.456.644.365.877a.776.776 0 0 1-.913.456c-.267-.086-.537-.17-.802-.262a.73.73 0 0 1-.175-.1c-.188-.13-.37-.266-.557-.396-.012 0-.048.02-.17.076.24.24.457.456.663.657a.365.365 0 0 1 .045.484.295.295 0 0 0-.018.162c.02.153.05.306.078.47.301.044.424.585.879.387l-.067-.316-.07.05a1.518 1.518 0 0 1-.254-.3c-.03-.06.04-.165.078-.3l.37.32.685.228a3.74 3.74 0 0 1-.185-.493.35.35 0 0 1 .048-.285c.207-.18.44-.331.696-.514l.388.347c.028-.116.044-.228.08-.324.062-.178.142-.35-.03-.519-.03-.03-.02-.118 0-.175.069-.288.176-.578-.105-.859.74.171.806.229.834.649-.573.198-.571.228.066.856.087-.144.157-.279.244-.402a1.24 1.24 0 0 1 .274-.322c.227-.151.465-.287.71-.406.124-.046.253-.078.384-.096 0-.066-.016-.229.155-.105l.192-.171c.021.079.034.16.036.242 0 .16.032.274.201.317.126-.098.17-.322.402-.249.22.074.464.005.612-.173.072-.058.148-.109.228-.153.016.157.025.269.041.379.013.053.031.105.053.155a.85.85 0 0 0 .12-.119c.037-.052.042-.15.085-.167.286-.107.247-.29.149-.509a.205.205 0 0 1 .228-.29c.3.086.586.21.854.368.377.251.758.516.952 1.002l.228-.42c-.084-.187-.137-.322-.203-.457-.036-.07-.091-.17-.15-.182-.229-.044-.18-.203-.147-.34.048-.194.121-.384.183-.576l-.228-.118c.03-.05.089-.112.077-.142-.112-.253.096-.352.229-.457a.868.868 0 0 0 .312-.527c.04-.183.112-.356.167-.534.041-.13.114-.167.247-.121.176.064.356.117.538.16.126.027.147.093.163.21.038.287-.121.506-.213.753-.03.096-.017.2.034.288.19.27.121.545.083.83-.048.357-.076.718-.105 1.076 0 .039.038.085.068.119.158.13.186.36.064.525a.566.566 0 0 0-.043.228.774.774 0 0 1-.432.498l.048.153-.504.128c.011.271.082.315.484.33.16-.138.276-.227.385-.342.054-.053.102-.113.142-.178.041-.09.094-.177.155-.255a.47.47 0 0 0 .124-.6c-.085-.215 0-.36.228-.412.12-.027.242-.052.35-.075.18.247.245.562.175.86-.043.163.096.229.313.17-.304-.167-.309-.188-.103-.469.014-.018.037-.043.032-.059a1.142 1.142 0 0 0-.171-.445c-.133-.128-.26-.331-.537-.215-.1.044-.377-.06-.388-.13a1.402 1.402 0 0 1 .03-.685.913.913 0 0 0-.025-.863c-.028-.045-.037-.105-.062-.15a.368.368 0 0 1 .135-.496c.056-.054.12-.1.19-.137a.345.345 0 0 0 .186-.406 1.826 1.826 0 0 1 0-.272h.09c.034.127.057.257.068.388 0 .272-.137.532-.055.813 0 .03-.036.075-.068.132l.844.395-.093-.32-.053.053a2.56 2.56 0 0 1-.381-.308c-.057-.066-.043-.192-.062-.292l.076-.016.15.228.304-.228-.146-.158c.367-.212.518-.228.799.032.228.203.386.484.744.475 0 0 .019.02.04.048-.035.069-.056.18-.115.21-.201.098-.178.27-.18.438a1.03 1.03 0 0 1-.021.229c-.043.178 0 .306.164.354a.578.578 0 0 0 .201-.567 2.705 2.705 0 0 1 .023-.589c0-.077.025-.178-.014-.228a2.767 2.767 0 0 0-.477-.502.365.365 0 0 1-.176-.411.374.374 0 0 0-.03-.228.374.374 0 0 1 .286-.578c.404-.044.808-.082 1.21-.137.08-.02.15-.066.199-.133.16-.207-.057-.274-.17-.383l.154-.153-.176-.26.062-.046.2.144.229-.407c.073-.036.192-.061.249-.132.169-.207.407-.345.671-.388.212-.046.422-.112.632-.176.066-.026.128-.059.188-.096l-.18-.12v-.051l.867-.062-.053.229c.062 0 .144-.016.176.016.137.132.228.034.327-.048.088-.092.172-.189.249-.29l.33.328a1.22 1.22 0 0 0-.031-.312 1.228 1.228 0 0 0-.185-.229c.182-.016.322-.034.456-.04.185 0 .229-.099.165-.261a.267.267 0 0 1 0-.192c.21-.367.413-.746.826-.934h.14c.082.055.162.115.246.167.212.13.228.304.053.457-.074.061-.158.112-.229.169l.044.057.127-.057c.104.05.21.092.32.128.228.054.267.132.126.33-.073.103-.16.195-.242.29l.038.067c.108-.037.268-.044.313-.117a.402.402 0 0 1 .51-.196c.107.02.216.032.326.039.27.101.469.333.53.614 0 .043.073.084.111.126l.067-.035c-.028.206.283.402 0 .621l-.16-.15-.039.038.26.26c0 .062.028.2-.025.254-.228.228-.456.443-.703.653-.119.105-.267.178-.379.29a4.212 4.212 0 0 0-.368.457c-.09.123-.178.228-.36.185a.171.171 0 0 0-.135.064c-.135.168-.263.344-.393.518l.057.05.215-.228c.413.12.728-.229 1.107-.354.032 0 .041-.094.06-.142l-.055-.023-.228.117-.064-.037.155-.356c.15.149.317.14.434.272a.228.228 0 0 0 .41-.073l.058.666.228-.08-.13-.168c.488-.313.913-.06 1.299.054.027.151.014.309.07.34.35.234.783.3 1.186.183a.205.205 0 0 0 .082-.18c-.055-.228-.032-.432.228-.532.315.107.518.48.913.351h.023c.321.108.515.434.457.768a.331.331 0 0 0 0 .182.406.406 0 0 1-.117.482.354.354 0 0 0-.057.285c.046.138.11.269.188.39a.74.74 0 0 0 .146.2c.091.08.196.143.324.228l.388-1.032c.171.265.164.61.543.573.133-.258.16-.265.409-.085.108.09.222.172.342.245a.313.313 0 0 0 .229 0c.144-.072.283-.152.418-.24a.703.703 0 0 1 .216-.655c.095-.118.172-.249.229-.388.02-.046.087-.042.15-.021.649.203 1.295.413 1.946.607.19.057.274.16.262.322l-.228.149c.155.112.28.205.409.294a.495.495 0 0 0 .084.03l.377.169-.176.276c.116.034.228.103.297.08.456-.13.913-.041 1.37 0a.58.58 0 0 1 .495.783c-.02.057-.034.114-.05.169l.457.317c.05-.034.111-.107.18-.114.203-.048.415-.048.619 0 .326.142.616.306.995-.039-.026.35.16.68.473.84.351-.205.41-.333.212-.58-.119-.148.055-.228.018-.346.076-.008.153-.008.229 0 .291.076.587.136.885.18.273.003.537.092.756.253.301.242.614.475.913.715.028.023.037.069.062.094.119.116.228.228.358.347.05.044.096.092.137.144.099.132.192.269.32.456v-.212c.356.182.046.644.333.797l.188-.304.123.11c.208 0 .418-.019.55.228.09.16.208.306.301.438l-.228.25-.148-.088.018.215c-.35-.098-.228.324-.457.379-.018 0-.02.064-.03.1-.008.037 0 .019 0 .023.133.142-.045.162-.081.251a1.911 1.911 0 0 0-.487-.347c-.187-.06-.27-.146-.255-.317.013-.171-.085-.267-.26-.27h-.457v-.472l-.069.014a.568.568 0 0 0-.228.061.19.19 0 0 0 0 .185c.148.183.055.32-.076.44-.13.122-.287.23-.4.323l-.328-.108-.05.053c.034.078.055.212.105.228.176.041.18.188.228.304.064.132.1.276.105.422 0 .162.142.37-.096.491-.351-.164-.353-.169-.685-.055-.405.16-.788.369-1.141.624-.097.07-.19.147-.279.228-.134.112-.271.228-.376.306-.165-.091-.35-.272-.541-.279-.192-.006-.384.162-.558.245v-.201l-.089-.076-.358.263c-.13-.025-.279.034-.36.258-.05.1-.106.198-.167.292-.099.192-.3.345-.252.587h.252a1.075 1.075 0 0 1-.04.228c-.054.142-.109.263.02.407.047.052 0 .185 0 .278h-.09l-.025-.228c-.162.228-.388.379-.272.685.066.173 0 .272-.198.251a.35.35 0 0 0-.17.05c-.228.105-.228.315-.228.516-.205.053-.417.076-.44.343-.023.267-.258.433-.487.62-.059-.49-.143-.945-.164-1.401a8.708 8.708 0 0 1 .073-1.16c0-.066.075-.128.119-.187.1-.142.205-.279.32-.436.156-.092.304-.2.44-.32.427-.443.76-.984 1.37-1.235.032-.014.036-.09.062-.132.15-.254.07-.63.42-.774a.212.212 0 0 0-.345-.076.413.413 0 0 0-.187.5c-.386-.014-.516.381-.774.482-.229-.199-.073-.409 0-.582a2.116 2.116 0 0 1-.229-.035c-.064-.018-.13-.077-.19-.068-.227.037-.456.06-.618.308a4.884 4.884 0 0 1-.456.457c-.104.13-.186.274-.245.43-.011.029.124.115.19.177v.044l-1.057.09v-.074l.292-.151-.827-.228-.125.198-.838-.057c-.19-.153-.772-.123-1.046.137-.228.208-.408.457-.625.655-.443.425-.898.838-1.347 1.256v.084l.388.099v.388l.164-.229.034.297.297-.032.057-.271c.099.018.251.011.267.054.092.258.457.352.368.733a1.95 1.95 0 0 1-.155.578.685.685 0 0 0-.107.352c.025.456-.042.865-.414 1.18a2.02 2.02 0 0 0-.21.28c-.35.43-.685.86-1.055 1.28a.945.945 0 0 1-.299.228.388.388 0 0 1-.475-.046 1.541 1.541 0 0 1-.118-.137l-.377.313c0-.103 0-.146.014-.16a.578.578 0 0 0 .169-.635c-.032-.135.198-.29.335-.228.137.062.247.03.31-.119.101-.228.206-.456.304-.685.062-.141.117-.287.174-.431l-.066-.037c-.213.073-.425.15-.64.228-.214.078-.406 0-.395-.178.026-.397-.262-.488-.536-.6-.07-.03-.158-.03-.228-.064a.253.253 0 0 1-.124-.14c-.08-.333-.132-.67-.228-1a.584.584 0 0 0-.228-.36c-.322-.142-.637-.329-1.035-.228a.685.685 0 0 0-.481.31c.187.085.21.178.114.308a3.374 3.374 0 0 0-.354.56.482.482 0 0 1-.685.283c-.345-.112-.685-.29-1.08-.032-.388.229-.87.22-1.25-.02-.23-.133-.458-.297-.686-.457a.44.44 0 0 0-.456-.04c-.311.138-.54 0-.608-.332a.326.326 0 0 0-.123-.201 4.541 4.541 0 0 0-.527-.254c-.147-.061-.475.192-.478.352-.002.16-.02.329-.032.511-.26-.018-.502-.032-.742-.052a.228.228 0 0 1-.127-.044 1.007 1.007 0 0 0-1.085-.175 6.546 6.546 0 0 0-.856.502 1.123 1.123 0 0 1-.149.066l-.077-.313a1.792 1.792 0 0 1-.425-.086.443.443 0 0 1-.182-.229.422.422 0 0 0-.637-.28c-.229.09-.245-.188-.39-.256l-.177.187-.102-.199c-.229-.431-.334-.931-.745-1.255-.03-.026 0-.133.012-.25-.156.083-.295.172-.457.229-.162.057-.317.1-.477.148l-.03-.054.076-.133-.411-.19-.21.017-.071-.477a1.434 1.434 0 0 0-.327-.092 1.671 1.671 0 0 0-.39.057c-.055.014-.094.08-.148.096-.279.076-.56.155-.843.21-.333.064-.669.105-1.023.16-.043.167.057.292.242.388-.089.023-.164 0-.228.028a.372.372 0 0 0-.137.093c.146.247-.116.244-.228.363l.413.306c-.075.228-.126.267-.359.21h-.114c-.132.146-.27 0-.31-.05-.092-.135-.158-.176-.32-.119-.11.039-.288-.04-.363.02-.187.154-.299.074-.415-.08l-.055.14a1.534 1.534 0 0 0-.26-.347 1.263 1.263 0 0 0-.363-.135c-.457-.068-.74.183-1 .41l-.048.321H7.99l-.244-.308-.293.815c.08.112.142.285.229.297.27.036.31.228.367.431l-.185.08.165.094-.229.191-.093-.146-.327.64c.07.133.134.27.19.41.028.15.064.298.11.443a.322.322 0 0 1-.033.398l-.187-.014c-.182-.194-.335-.473-.56-.56-.223-.086-.456-.086-.632-.248-.016-.014-.045 0-.068-.014-.402-.089-.824-.128-1.114-.486-.05-.064-.144-.092-.21-.144-.066-.053-.162-.142-.229-.194l.457-.363-.142-.176.405-.173v-.04l-.242-.015c.034-.297.228-.274.442-.258.002-.166.032-.33.087-.486.112-.195.032-.272-.123-.338-.155-.067-.409-.087-.532-.286 0-.016-.057-.023-.084-.016-.183.04-.434.028-.441-.15 0-.258-.27-.213-.317-.377a.178.178 0 0 1 0-.087.212.212 0 0 0-.217-.294c-.148.004-.294.02-.439.05l-.084-.457.456-.08c-.098-.107-.134-.169-.19-.2a.685.685 0 0 1-.314-.606c.011-.155.018-.335-.174-.379-.11-.025-.21-.08-.303-.1-.363-.09-.26-.402-.338-.617-.09-.255.032-.561-.165-.803z"/>
    </g>
</svg>
