<svg xmlns="http://www.w3.org/2000/svg" width="50" height="50" viewBox="0 0 50 50">
    <g fill="none" fill-rule="evenodd">
        <path fill="#666" d="M49.66 24.934a23.516 23.516 0 0 1-.486 4.872 19.76 19.76 0 0 1-.647 2.534 24.795 24.795 0 0 1-2.21 5.007c-.207.358-.422.72-.655 1.069-.233.349-.486.728-.746 1.077a24.511 24.511 0 0 1-1.96 2.354 9.393 9.393 0 0 1-.719.728 24.514 24.514 0 0 1-10.607 6.149 22.868 22.868 0 0 1-3.082.655c-.162.027-.324.046-.486.064l-.765.08h-.108l-.639.055c-.477.018-.943.045-1.429.045h-.171c-.423 0-.846-.009-1.267-.027a1.89 1.89 0 0 1-.229-.018c-.08 0-.162 0-.242-.019-.27-.018-.52-.036-.783-.064l-.228-.027a9.277 9.277 0 0 1-.845-.098 24.678 24.678 0 0 1-14.858-8.018 27.82 27.82 0 0 1-1.754-2.21 22.212 22.212 0 0 1-.988-1.51A24.694 24.694 0 0 1 4.45 11.12c.924 1.995.817 4.52.342 6.75-.107.512-.228 1.035-.116 1.537.137.498.383.958.719 1.35.756.997 1.438 2.139 2.329 3.057.997 1.025 2.283 1.169 3.173 2.194a3.374 3.374 0 0 0 4.338.53c.171-.142.358-.262.557-.359.377-.144.79-.046 1.187.046 1.352.304 2.727.497 4.11.575a3.98 3.98 0 0 0 1.42-.089c.575-.171 1.142-.575 1.735-.431.747.18 1.016 1.141.882 1.897-.135.756-.521 1.475-.521 2.237 0 .52-.073 1.222.422 1.546.297.199.685.135 1.026.162.88.055 1.509.603 2.157 1.142.8.664 1.527.62 2.562.826 1.24.242 1.598 1.37 1.787 2.553.297 1.753.368 3.54.685 5.303.318 1.89.642 3.489 2.845 3.653.343.028.808-.107.79-.456-.018-.35-.539-.457-.685-.79a.97.97 0 0 1-.036-.325c.214-3.81 4.71-6.344 4.89-10.166.027-.54-.037-1.114.199-1.598.153-.287.344-.553.566-.79a5.438 5.438 0 0 0 1.16-3.936c-.08-.79-.334-1.599-.153-2.382.107-.456.367-.881.456-1.34.09-.459-.036-1.043-.477-1.221-.315-.135-.685 0-.998.098a13.301 13.301 0 0 1-3.828.685c-.28.021-.56-.012-.827-.098-.324-.144-.557-.432-.835-.665a2.808 2.808 0 0 0-3.11-.288c-.8.457-1.852-.089-2.77-.152a6.717 6.717 0 0 0-5.922 2.84 1.726 1.726 0 0 1-.63.664c-.432.18-.913-.046-1.37.027-.539.09-1.096.585-1.564.288-.468-.297-.25-1.141-.685-1.5-.575-.486-1.402.395-2.148.26-.575-.52-.028-1.826-.756-2.084-.44-.162-.872.306-1.016.747-.144.44-.171.97-.502 1.303-.496.502-1.411.26-1.827-.297-.415-.557-.456-1.322-.456-2.022 0-.747.073-1.537.495-2.149.585-.835 1.662-1.123 2.65-1.356.775-.18 1.52-.27 2.14.306.242.215.872 1.438 1.197.52a1.025 1.025 0 0 0-.163-.826 3.425 3.425 0 0 0-.63-.858c-.287-.279-.655-.63-.539-1.007.09-.279.395-.414.621-.585.54-.446.684-1.215.343-1.826-.135-.229-.333-.423-.368-.685-.089-.53.496-.89.747-1.356.228-.432.18-.952.297-1.43.116-.477.584-.952 1.034-.764.18.08.342.26.539.214.116-.018.198-.125.27-.228.358-.492.682-1.009.97-1.546-.496-.144-.962.334-1.475.395a.99.99 0 0 1-1.053-.943.975.975 0 0 1 1.06-.915c.566.073.952.62 1.5.79a1.21 1.21 0 0 0 1.429-.685l-1.96-.97a10.486 10.486 0 0 0-2.426-.98c-.845-.19-1.78-.162-2.544.27-.376.207-.773.036-1.205 0-.431-.037-.961.098-1.043.52-.02.243.048.486.19.685a7.14 7.14 0 0 1 .773 3.155c-.53.368-1.196-.116-1.772-.404-.502-.26-1.086-.358-1.564-.685-.477-.326-.783-1.007-.431-1.466.17-.177.377-.316.605-.408a2.055 2.055 0 0 0 1.007-1.062c.162-.477 0-1.087-.457-1.285.368.162 1.17-.208 1.628-.108.395.08 1.797.79 2.023.064.26-.845-1.852-1.141-2.329-1.096a1.06 1.06 0 0 1-.377 0c-.315-.089-.404-.53-.242-.808.191-.265.484-.438.809-.477 1.276-.228 2.481.52 3.63 1.105 1.148.584 2.607 1.034 3.653.279 0-.594-1.053-.665-1.17-1.24-.088-.423.378-.808.27-1.222a.945.945 0 0 0-.242-.351 4.08 4.08 0 0 0-.539-.414 24.073 24.073 0 0 1 3.948-.34h.199c.773 0 1.536.046 2.3.117.594.89 1.62 1.545 2.617 1.995.344.181.719.294 1.105.334.557.027 1.087-.208 1.637-.297.377-.055.97-.037 1.25.27.278.305.097.782.385 1.122.208.242.961.557 1.285.621.952.208 1.331-.269 1.7-.853.35.198.684.404 1.024.63a1.249 1.249 0 0 0-.242.808c.054.393.212.765.457 1.078 1.227 1.966 2.449 3.927 3.666 5.883.487.765.97 1.537 1.628 2.158.557.511 1.69 1.312 2.464.611.26-.228.376-.783.566-1.141a24.658 24.658 0 0 1 2.765 11.37z"/>
        <path fill="#151515" fill-rule="nonzero" d="M25.114 49.858h-.171c-.425 0-.852 0-1.276-.027a2.18 2.18 0 0 1-.24-.02h-.24a22.949 22.949 0 0 1-.78-.064l-.229-.028a8.886 8.886 0 0 1-.856-.1 24.984 24.984 0 0 1-14.989-8.09 28.267 28.267 0 0 1-1.767-2.23c-.31-.436-.628-.913-.998-1.523a24.918 24.918 0 0 1 .695-26.783l.228-.329.167.361c1.036 2.233.767 4.98.356 6.893-.114.536-.213 1.002-.117 1.443.135.465.369.896.685 1.262.242.322.48.66.72 1A16.505 16.505 0 0 0 7.9 23.658c.449.423.964.771 1.525 1.03.622.279 1.184.677 1.655 1.17a3.148 3.148 0 0 0 4.043.494l.13-.096c.145-.118.304-.216.475-.29.434-.165.89-.062 1.295.03a25.1 25.1 0 0 0 4.084.575c.45.053.905.026 1.345-.08.167-.053.33-.115.49-.185.435-.18.882-.365 1.37-.249.86.208 1.209 1.258 1.049 2.153a7.39 7.39 0 0 1-.247.913 4.306 4.306 0 0 0-.272 1.286v.139c-.01.457-.025.99.322 1.22.195.096.414.137.63.116h.288c.913.054 1.564.59 2.197 1.111l.086.071c.573.477 1.112.56 1.795.667.21.032.431.066.669.114 1.37.267 1.755 1.475 1.968 2.74.144.851.228 1.724.326 2.568.096.9.194 1.827.356 2.74.363 2.066.722 3.333 2.656 3.484a.726.726 0 0 0 .509-.128.114.114 0 0 0 .039-.096c0-.08-.096-.153-.245-.265a1.114 1.114 0 0 1-.413-.456 1.16 1.16 0 0 1-.052-.409c.111-1.977 1.32-3.612 2.488-5.194 1.17-1.582 2.315-3.132 2.402-4.982v-.37a3.082 3.082 0 0 1 .21-1.324c.132-.262.3-.505.498-.721l.096-.117a5.19 5.19 0 0 0 1.11-3.771 10.195 10.195 0 0 0-.094-.66 4.621 4.621 0 0 1-.053-1.795c.061-.234.141-.463.24-.685.095-.209.171-.426.228-.648.078-.37-.016-.833-.342-.968-.229-.098-.53 0-.818.096a13.548 13.548 0 0 1-3.917.703 1.73 1.73 0 0 1-1.585-.607c-.075-.071-.15-.142-.228-.21a2.594 2.594 0 0 0-2.875-.267c-.616.347-1.322.187-2.009.032a5.936 5.936 0 0 0-.886-.156 6.482 6.482 0 0 0-5.723 2.74l-.032.048c-.16.287-.398.524-.685.685-.29.1-.6.12-.9.06a2.01 2.01 0 0 0-.532-.017 2.406 2.406 0 0 0-.509.174c-.377.16-.808.338-1.21.082-.329-.21-.402-.582-.457-.913a1.055 1.055 0 0 0-.255-.582c-.213-.179-.491-.083-.925.09a2.116 2.116 0 0 1-1.119.23h-.064l-.048-.044c-.335-.306-.363-.783-.388-1.206-.027-.456-.054-.749-.294-.835a.326.326 0 0 0-.265.023 1.037 1.037 0 0 0-.457.582c-.038.118-.066.242-.096.367-.051.378-.21.734-.456 1.025a1.2 1.2 0 0 1-.955.306 1.715 1.715 0 0 1-1.223-.657c-.457-.614-.514-1.402-.505-2.16.01-.758.064-1.598.534-2.283.61-.875 1.665-1.183 2.786-1.448.756-.175 1.623-.308 2.345.361.084.09.16.185.228.288.103.14.379.507.493.511a.477.477 0 0 0 .098-.187.804.804 0 0 0-.144-.642 3.21 3.21 0 0 0-.6-.785c-.322-.313-.754-.73-.598-1.235.105-.253.297-.461.54-.587.056-.036.108-.073.158-.11a1.23 1.23 0 0 0 .286-1.538c-.037-.062-.08-.121-.121-.178a1.34 1.34 0 0 1-.279-.58c-.075-.457.21-.783.457-1.082a2.56 2.56 0 0 0 .308-.414c.115-.253.18-.527.19-.806.016-.192.045-.382.086-.57.094-.379.343-.7.685-.886a.772.772 0 0 1 .67-.025c.067.032.133.07.196.112.08.05.168.102.205.093.037-.009.116-.107.14-.14.277-.38.534-.777.769-1.186a2.653 2.653 0 0 0-.388.16c-.215.112-.446.189-.685.228a1.185 1.185 0 0 1-.914-.313 1.164 1.164 0 0 1-.397-.854 1.196 1.196 0 0 1 1.315-1.141c.345.07.665.227.932.456.183.148.388.266.607.35a.99.99 0 0 0 1.057-.38l-1.751-.867a10.457 10.457 0 0 0-2.363-.97 3.365 3.365 0 0 0-2.377.244 1.445 1.445 0 0 1-1.007.075c-.107-.018-.214-.039-.326-.048-.283-.023-.747.048-.804.34a.858.858 0 0 0 .167.544 7.345 7.345 0 0 1 .799 3.26v.128l-.098.068c-.557.389-1.213.028-1.73-.25-.094-.05-.188-.101-.277-.147-.207-.1-.42-.188-.64-.26a4.11 4.11 0 0 1-.951-.438 1.598 1.598 0 0 1-.665-1.028.98.98 0 0 1 .183-.767c.16-.185.359-.332.582-.431l.082-.044c.403-.194.723-.526.902-.936.121-.352 0-.852-.34-1.004l.178-.414c.23.03.463.012.685-.055.29-.077.59-.1.888-.066.134.035.266.077.395.126.372.13.998.351 1.265.228a.192.192 0 0 0 .1-.128.228.228 0 0 0-.052-.228c-.333-.402-1.646-.621-2.034-.573h-.062c-.136.02-.275.012-.409-.023a.644.644 0 0 1-.42-.397.86.86 0 0 1 .05-.74c.22-.325.57-.538.96-.582 1.21-.212 2.31.363 3.374.913l.402.208c.977.507 2.326.968 3.308.374a1.1 1.1 0 0 0-.439-.349c-.294-.173-.627-.368-.703-.742-.033-.26.022-.522.155-.747a.77.77 0 0 0 .135-.472.783.783 0 0 0-.185-.249 3.906 3.906 0 0 0-.504-.386l-.48-.306.56-.093A24.43 24.43 0 0 1 24.854 0h.199c.716 0 1.477.039 2.321.119h.108l.06.089c.611.913 1.71 1.55 2.51 1.915.32.168.667.274 1.026.313.334-.005.666-.058.986-.157.2-.053.4-.105.603-.137.488-.071 1.123-.019 1.452.34.15.192.237.427.246.671a.854.854 0 0 0 .146.457c.344.26.738.445 1.158.543.81.176 1.105-.185 1.466-.753l.114-.18.187.104c.388.229.726.427 1.039.64l.194.13-.137.187a1.02 1.02 0 0 0-.2.662c.047.362.191.706.417.993l1.37 2.171c.777 1.24 1.553 2.48 2.326 3.72.444.766.981 1.476 1.598 2.111.33.302 1.46 1.242 2.158.608.148-.186.258-.398.324-.626.056-.156.12-.308.194-.457l.201-.379.18.386a25.023 25.023 0 0 1 2.786 11.473 23.82 23.82 0 0 1-.491 4.918c-.16.866-.379 1.721-.653 2.56a25.137 25.137 0 0 1-2.23 5.05 16.8 16.8 0 0 1-.665 1.08c-.208.305-.457.702-.753 1.086a24.751 24.751 0 0 1-2.704 3.114 24.81 24.81 0 0 1-10.698 6.199 22.95 22.95 0 0 1-3.112.662c-.16.027-.327.046-.493.064l-.774.08h-.133l-.984.068c-.358.018-.717.034-1.082.034zM4.406 11.591A24.566 24.566 0 0 0 3.95 37.53c.363.591.685 1.066.98 1.495.541.76 1.12 1.493 1.737 2.194a24.534 24.534 0 0 0 14.721 7.943c.315.05.578.082.827.096l.244.027c.256.028.504.046.772.062h.253c.066.01.132.015.199.016.429.018.849.027 1.267.027h.164c.36 0 .71-.016 1.064-.03l.99-.045h.127l.74-.08c.164-.018.321-.034.479-.061a22.56 22.56 0 0 0 3.057-.651 24.36 24.36 0 0 0 10.502-6.094c.276-.255.525-.52.712-.721a24.276 24.276 0 0 0 2.683-3.404c.208-.32.4-.626.65-1.06.447-.76.85-1.545 1.204-2.351.384-.849.714-1.72.989-2.61.269-.822.483-1.66.641-2.511.328-1.59.49-3.209.482-4.831a24.596 24.596 0 0 0-2.512-10.838 1.993 1.993 0 0 1-.433.776c-.66.598-1.694.372-2.765-.614a10.909 10.909 0 0 1-1.64-2.165l-.03-.047a1472.94 1472.94 0 0 0-2.328-3.715L38.37 6.164a2.416 2.416 0 0 1-.484-1.187c-.015-.26.041-.52.162-.751-.201-.13-.416-.263-.646-.397-.365.536-.843.984-1.827.774-.342-.066-1.157-.4-1.408-.685a1.233 1.233 0 0 1-.25-.685.78.78 0 0 0-.134-.43c-.194-.21-.664-.253-1.048-.196-.185.03-.37.08-.557.128a3.72 3.72 0 0 1-1.12.171c-.416-.04-.82-.16-1.19-.353-.838-.377-1.966-1.026-2.647-1.985a23.5 23.5 0 0 0-2.175-.107h-.199a23.838 23.838 0 0 0-3.386.235l.126.112c.133.122.237.274.301.443.05.268-.001.545-.141.779a.831.831 0 0 0-.124.456c.037.18.258.31.491.457.308.18.685.404.685.845v.114l-.091.066c-1.174.845-2.767.324-3.893-.263l-.406-.21c-1-.52-2.032-1.057-3.085-.874a.97.97 0 0 0-.653.368.416.416 0 0 0-.02.347.21.21 0 0 0 .13.132.749.749 0 0 0 .246 0c.457-.05 1.982.135 2.475.728.156.18.208.427.137.653a.644.644 0 0 1-.333.402c-.434.228-1.117-.02-1.617-.196a3.15 3.15 0 0 0-.337-.108 2.112 2.112 0 0 0-.71.069l-.293.055c.188.344.225.75.1 1.123A2.26 2.26 0 0 1 13.34 7.38l-.087.046a1.308 1.308 0 0 0-.436.306.537.537 0 0 0-.096.424c.059.293.23.551.475.72.266.163.551.293.85.385.234.08.463.174.685.283.09.046.187.099.285.151.498.27.858.457 1.153.322a6.897 6.897 0 0 0-.744-2.922 1.212 1.212 0 0 1-.208-.845c.103-.541.733-.742 1.28-.685.124 0 .247.032.366.052.236.073.49.06.717-.034a3.806 3.806 0 0 1 2.7-.292c.865.229 1.698.564 2.48.998l2.144 1.061-.075.192a1.432 1.432 0 0 1-1.706.824 2.61 2.61 0 0 1-.735-.413 1.705 1.705 0 0 0-.726-.37.749.749 0 0 0-.808.703c.007.201.098.39.251.52.149.142.35.214.555.2.187-.038.368-.103.536-.194.304-.142.651-.304 1.023-.197l.265.078-.13.244a13.199 13.199 0 0 1-.98 1.578.664.664 0 0 1-.417.315.685.685 0 0 1-.532-.155 1.037 1.037 0 0 0-.133-.078.324.324 0 0 0-.283.023.952.952 0 0 0-.461.591c-.037.169-.063.34-.078.511a2.53 2.53 0 0 1-.228.97c-.103.176-.224.34-.36.492-.218.255-.405.475-.364.721a1 1 0 0 0 .201.39c.048.069.096.138.14.208.404.71.237 1.608-.396 2.126-.059.046-.12.087-.184.128-.163.107-.316.21-.361.347-.076.228.228.532.472.767.274.263.505.566.685.9.229.39.281.723.176 1.01-.105.288-.253.457-.456.48-.37.057-.674-.356-.914-.685a2.144 2.144 0 0 0-.18-.228c-.51-.473-1.098-.457-1.938-.256-1.03.245-1.998.525-2.512 1.267-.4.58-.456 1.347-.456 2.021 0 .674.036 1.37.413 1.888.219.277.543.45.895.48.22.022.44-.053.6-.206.185-.235.303-.516.343-.813.032-.134.064-.271.107-.402.112-.36.357-.664.685-.849a.779.779 0 0 1 .616-.039c.528.197.56.747.587 1.233.018.34.039.662.196.852.28-.013.556-.082.809-.203.456-.176.952-.38 1.37-.016.228.234.368.54.395.867.052.274.098.51.264.617.167.107.427.036.795-.117.195-.091.4-.16.612-.203.218-.025.438-.02.655.014.223.046.453.037.671-.028.208-.132.38-.316.496-.534l.034-.05a6.932 6.932 0 0 1 6.125-2.938c.322.031.641.087.955.166.63.142 1.224.276 1.69.016a3.014 3.014 0 0 1 3.613.539c.155.164.336.301.535.406.235.073.482.1.728.08a13.039 13.039 0 0 0 3.765-.671c.356-.119.77-.258 1.157-.094.555.229.726.914.608 1.475-.06.25-.144.494-.25.729a4.094 4.094 0 0 0-.227.616c-.084.54-.063 1.09.061 1.621.037.228.073.457.098.685a5.644 5.644 0 0 1-1.207 4.11l-.1.12c-.173.187-.32.396-.437.622a2.726 2.726 0 0 0-.169 1.141v.386c-.094 1.986-1.313 3.635-2.488 5.228-1.176 1.594-2.297 3.11-2.4 4.94a.76.76 0 0 0 .023.23c.066.103.156.19.262.253a.831.831 0 0 1 .425.602.562.562 0 0 1-.176.441c-.24.194-.549.283-.856.249-2.42-.187-2.74-2.055-3.062-3.852-.164-.913-.264-1.856-.36-2.762a43.897 43.897 0 0 0-.322-2.541c-.213-1.274-.569-2.165-1.61-2.37-.228-.046-.456-.08-.65-.112-.722-.112-1.345-.21-2.012-.763l-.084-.07c-.603-.496-1.174-.964-1.943-1.012h-.263a1.53 1.53 0 0 1-.872-.19c-.555-.362-.539-1.08-.525-1.597v-.133c.022-.487.119-.967.288-1.425.094-.28.17-.566.228-.856.12-.685-.119-1.495-.712-1.639-.336-.084-.7.066-1.083.228a5.427 5.427 0 0 1-.536.201c-.49.124-1 .157-1.502.098a25.457 25.457 0 0 1-4.13-.58c-.398-.089-.752-.17-1.058-.054-.13.06-.254.136-.365.228l-.142.105a3.61 3.61 0 0 1-4.627-.575c-.43-.493-.962-.772-1.526-1.069a6.027 6.027 0 0 1-1.646-1.11c-.6-.652-1.147-1.35-1.637-2.088a24.152 24.152 0 0 0-.71-.989 3.703 3.703 0 0 1-.76-1.44 3.788 3.788 0 0 1 .114-1.587c.377-1.779.633-4.229-.16-6.277z"/>
        <path fill="#FFF" d="M42.829 25.142c-.18.783.07 1.598.153 2.38a5.438 5.438 0 0 1-1.16 3.937 3.742 3.742 0 0 0-.566.79c-.229.495-.172 1.068-.199 1.598-.18 3.82-4.673 6.354-4.89 10.167a.97.97 0 0 0 .036.324c.135.333.655.44.685.79.03.35-.456.486-.79.456-2.212-.15-2.536-1.748-2.867-3.652-.315-1.763-.386-3.55-.685-5.304-.199-1.187-.548-2.31-1.788-2.553-1.034-.207-1.763-.162-2.562-.826-.646-.53-1.276-1.078-2.157-1.142-.352-.027-.728.037-1.025-.162-.496-.324-.432-1.025-.423-1.545 0-.765.386-1.484.52-2.238.136-.753-.134-1.717-.88-1.897-.585-.144-1.16.26-1.736.431a3.98 3.98 0 0 1-1.42.09 25.132 25.132 0 0 1-4.11-.576c-.394-.089-.807-.19-1.186-.046-.2.097-.387.218-.558.359a3.374 3.374 0 0 1-4.337-.53c-.89-1.025-2.176-1.169-3.174-2.194-.89-.913-1.573-2.055-2.329-3.057a3.505 3.505 0 0 1-.707-1.336c-.108-.502 0-1.025.116-1.536.477-2.228.584-4.756-.343-6.751A24.678 24.678 0 0 1 20.886.557c.19.123.37.26.539.413.106.098.189.218.242.352.107.413-.359.799-.27 1.221.117.576 1.178.646 1.17 1.24-1.053.756-2.512.315-3.654-.278-1.141-.594-2.354-1.331-3.63-1.105a1.164 1.164 0 0 0-.808.477c-.162.278-.07.719.242.808.124.022.252.022.377 0 .477-.055 2.589.251 2.328 1.096-.228.728-1.627.018-2.022-.064-.457-.098-1.258.27-1.628.107.456.199.63.808.456 1.286a2.055 2.055 0 0 1-.986 1.073 1.758 1.758 0 0 0-.594.413c-.351.457-.036 1.141.432 1.466.468.324 1.062.422 1.564.685.575.287 1.24.774 1.772.404a7.14 7.14 0 0 0-.774-3.156 1.043 1.043 0 0 1-.19-.684c.08-.423.621-.558 1.043-.521.423.036.827.208 1.206 0 .765-.432 1.699-.457 2.543-.27.847.224 1.662.553 2.427.98l1.96.97a1.21 1.21 0 0 1-1.43.685c-.548-.171-.934-.719-1.5-.79a.975.975 0 0 0-1.062.927.99.99 0 0 0 1.05.939c.512-.064.98-.54 1.475-.395a13.114 13.114 0 0 1-.97 1.545c-.073.098-.153.208-.27.229-.198.045-.358-.135-.538-.215-.457-.19-.913.297-1.034.765s-.064.998-.297 1.429c-.251.457-.836.827-.747 1.356.037.251.229.457.368.685.341.612.197 1.38-.343 1.827-.228.17-.53.306-.62.584-.117.377.25.728.538 1.007.255.244.47.526.64.836.17.24.228.54.162.826-.325.913-.953-.306-1.197-.52-.62-.576-1.37-.487-2.14-.306-.988.228-2.065.52-2.65 1.356-.422.612-.495 1.402-.495 2.148 0 .701.036 1.457.456 2.023.42.566 1.34.799 1.827.297.333-.334.358-.854.502-1.304.144-.45.576-.913 1.016-.746.728.269.18 1.563.756 2.084.746.135 1.573-.747 2.148-.26.432.358.208 1.196.685 1.5.477.303 1.025-.199 1.564-.288.457-.073.943.153 1.37-.027.266-.161.484-.39.63-.665a6.717 6.717 0 0 1 5.927-2.856c.913.064 1.968.603 2.77.153a2.808 2.808 0 0 1 3.11.304c.278.228.51.52.835.664.266.087.547.12.826.098 1.303-.04 2.593-.27 3.829-.685.324-.107.685-.228.998-.098.44.18.575.756.477 1.222-.098.465-.359.879-.468 1.338z"/>
        <path fill="#151515" fill-rule="nonzero" d="M36.171 45.826h-.1c-2.42-.187-2.74-2.054-3.062-3.851-.164-.913-.265-1.856-.36-2.763a43.897 43.897 0 0 0-.323-2.54c-.212-1.275-.568-2.165-1.61-2.37-.227-.046-.456-.08-.65-.113-.721-.111-1.345-.21-2.011-.762l-.085-.07c-.602-.496-1.173-.964-1.943-1.012h-.262a1.53 1.53 0 0 1-.872-.19c-.555-.363-.54-1.08-.525-1.598v-.132c.022-.489.12-.971.29-1.43.094-.28.17-.566.228-.856.12-.685-.119-1.495-.712-1.639-.336-.084-.7.066-1.083.228a5.427 5.427 0 0 1-.536.201c-.49.124-1 .157-1.502.098a25.457 25.457 0 0 1-4.13-.58c-.398-.089-.752-.17-1.058-.054-.13.06-.254.136-.365.228l-.142.105a3.61 3.61 0 0 1-4.627-.575c-.43-.493-.962-.772-1.526-1.069a6.027 6.027 0 0 1-1.646-1.11c-.6-.652-1.147-1.35-1.637-2.088a24.152 24.152 0 0 0-.71-.989 3.703 3.703 0 0 1-.76-1.44 3.788 3.788 0 0 1 .114-1.587c.4-1.886.665-4.535-.32-6.656a.228.228 0 0 1 .019-.228A24.975 24.975 0 0 1 20.852.336a.228.228 0 0 1 .162.034c.201.13.391.275.568.436.134.122.237.274.302.443.049.268-.002.545-.142.778a.831.831 0 0 0-.123.457c.036.18.258.31.49.457.309.18.686.404.686.844a.228.228 0 0 1-.094.178c-1.174.845-2.767.325-3.893-.262l-.406-.21c-1-.52-2.032-1.057-3.085-.875a.97.97 0 0 0-.653.368.416.416 0 0 0-.02.347.21.21 0 0 0 .13.132.749.749 0 0 0 .247 0c.456-.05 1.981.135 2.474.729.156.179.208.426.137.653a.644.644 0 0 1-.326.406c-.436.228-1.119-.02-1.617-.196a3.15 3.15 0 0 0-.337-.108 2.066 2.066 0 0 0-.71.069l-.293.055c.188.344.225.75.1 1.123A2.26 2.26 0 0 1 13.34 7.38l-.087.046a1.308 1.308 0 0 0-.436.306.537.537 0 0 0-.096.424c.059.293.23.551.475.72.266.163.551.293.85.385.234.08.463.174.685.283.09.046.187.099.285.151.498.27.858.457 1.153.322a6.897 6.897 0 0 0-.744-2.922 1.212 1.212 0 0 1-.208-.845c.103-.541.721-.742 1.28-.685.124 0 .247.032.366.052.236.073.49.06.717-.034a3.806 3.806 0 0 1 2.7-.292c.865.229 1.698.564 2.48.998l1.957.97c.103.053.15.175.11.283a1.432 1.432 0 0 1-1.706.824 2.61 2.61 0 0 1-.735-.413 1.705 1.705 0 0 0-.726-.37.749.749 0 0 0-.808.703c.007.201.098.39.25.52.15.142.35.214.556.2.187-.038.368-.103.536-.194.304-.142.65-.304 1.023-.197a.228.228 0 0 1 .137.322 13.199 13.199 0 0 1-.98 1.578.664.664 0 0 1-.417.315.685.685 0 0 1-.532-.155 1.037 1.037 0 0 0-.133-.078.324.324 0 0 0-.283.023.952.952 0 0 0-.461.591c-.037.169-.063.34-.078.511a2.53 2.53 0 0 1-.228.97c-.103.176-.224.34-.36.492-.218.255-.405.475-.364.721a1 1 0 0 0 .201.39c.048.069.096.138.14.208.404.71.237 1.608-.396 2.126-.059.046-.12.087-.184.128-.163.107-.316.21-.361.347-.076.228.228.532.472.767.274.263.505.566.685.9.229.39.281.723.176 1.01-.105.288-.253.457-.456.48-.361.05-.672-.356-.914-.685a2.144 2.144 0 0 0-.18-.228c-.51-.473-1.098-.457-1.938-.256-1.03.245-1.998.525-2.512 1.267-.4.58-.456 1.347-.456 2.021 0 .674.036 1.37.413 1.888.219.277.543.45.895.48.22.022.44-.053.6-.206.185-.235.303-.516.343-.813.032-.134.064-.271.107-.402.112-.36.357-.664.685-.849a.779.779 0 0 1 .616-.039c.528.197.56.747.587 1.233.018.34.039.662.199.852.279-.015.553-.084.806-.203.456-.176.952-.38 1.37-.016.228.234.368.54.395.867.052.274.098.51.264.617.167.107.427.036.795-.117.195-.091.4-.16.612-.203.218-.025.438-.02.655.014.223.046.453.037.671-.028.208-.132.38-.316.496-.534l.034-.05a6.932 6.932 0 0 1 6.125-2.938c.322.031.641.087.955.166.63.142 1.224.276 1.69.016a3.014 3.014 0 0 1 3.613.539c.155.164.336.301.535.406.235.073.482.1.728.08a13.039 13.039 0 0 0 3.765-.671c.356-.119.77-.258 1.157-.094.555.229.726.914.608 1.475-.06.25-.144.494-.25.729a4.073 4.073 0 0 0-.227.616c-.084.54-.063 1.09.061 1.621.037.228.073.457.098.685a5.644 5.644 0 0 1-1.207 4.11l-.1.12c-.173.187-.32.396-.437.622a2.726 2.726 0 0 0-.169 1.141v.386c-.094 1.986-1.313 3.635-2.488 5.228-1.176 1.594-2.297 3.11-2.4 4.94a.76.76 0 0 0 .023.23c.066.103.156.19.262.253a.831.831 0 0 1 .425.602.562.562 0 0 1-.176.441 1.112 1.112 0 0 1-.758.253zM23.973 26.027c.104 0 .208.012.31.037.859.208 1.208 1.258 1.048 2.153a7.39 7.39 0 0 1-.247.913 4.306 4.306 0 0 0-.271 1.286v.139c-.012.456-.025.99.322 1.219.195.097.413.137.63.116h.288c.913.055 1.563.592 2.196 1.112l.087.071c.573.477 1.111.56 1.794.667.21.032.432.066.67.114 1.369.267 1.755 1.475 1.967 2.74.144.851.228 1.723.327 2.568.095.9.194 1.827.356 2.74.363 2.066.721 3.333 2.655 3.484a.726.726 0 0 0 .51-.128.114.114 0 0 0 .038-.096c0-.08-.096-.153-.244-.265a1.114 1.114 0 0 1-.414-.456 1.16 1.16 0 0 1-.052-.409c.112-1.977 1.32-3.612 2.489-5.194 1.168-1.582 2.315-3.133 2.401-4.982v-.37a3.082 3.082 0 0 1 .21-1.324c.132-.262.3-.505.498-.721l.096-.117a5.19 5.19 0 0 0 1.11-3.771 10.195 10.195 0 0 0-.094-.66 4.621 4.621 0 0 1-.053-1.795 4.47 4.47 0 0 1 .24-.685c.095-.209.172-.426.228-.648.078-.37-.015-.833-.342-.968-.228-.098-.53 0-.817.096a13.548 13.548 0 0 1-3.918.703 1.73 1.73 0 0 1-1.585-.607 9.945 9.945 0 0 0-.228-.21 2.594 2.594 0 0 0-2.845-.274c-.616.347-1.322.187-2.009.032a5.936 5.936 0 0 0-.886-.156 6.482 6.482 0 0 0-5.723 2.74l-.032.048c-.16.287-.398.524-.685.685-.29.1-.6.12-.9.06a2.01 2.01 0 0 0-.532-.017 2.406 2.406 0 0 0-.509.174c-.377.16-.808.338-1.21.082-.329-.21-.402-.582-.457-.913a1.055 1.055 0 0 0-.255-.582c-.21-.179-.491-.083-.925.09a2.116 2.116 0 0 1-1.119.23.228.228 0 0 1-.112-.056c-.335-.306-.363-.783-.388-1.205-.027-.457-.054-.749-.294-.836a.326.326 0 0 0-.265.023 1.037 1.037 0 0 0-.457.582c-.038.119-.066.242-.096.368-.051.378-.21.734-.456 1.025a1.2 1.2 0 0 1-.955.317 1.715 1.715 0 0 1-1.223-.657c-.457-.614-.514-1.402-.505-2.16.01-.758.064-1.598.534-2.283.61-.875 1.665-1.183 2.786-1.448.756-.175 1.623-.308 2.345.361.084.09.16.185.228.288.103.14.379.507.493.511a.477.477 0 0 0 .098-.187.804.804 0 0 0-.144-.642 3.21 3.21 0 0 0-.6-.785c-.322-.313-.754-.73-.598-1.235.105-.253.297-.461.54-.587.056-.036.108-.073.158-.11a1.23 1.23 0 0 0 .286-1.538c-.037-.062-.08-.121-.121-.178a1.34 1.34 0 0 1-.279-.58c-.075-.457.21-.783.457-1.082a2.56 2.56 0 0 0 .308-.414c.115-.253.18-.527.19-.806.016-.192.045-.382.086-.57.094-.379.343-.7.685-.886a.772.772 0 0 1 .67-.025c.067.032.133.07.196.112.08.05.168.102.205.093.037-.009.116-.107.14-.14.277-.38.534-.777.769-1.186a2.653 2.653 0 0 0-.388.16c-.215.112-.446.189-.685.228a1.185 1.185 0 0 1-.914-.313 1.164 1.164 0 0 1-.397-.854 1.196 1.196 0 0 1 1.315-1.141c.345.07.665.227.932.456.183.148.388.266.607.35a.99.99 0 0 0 1.057-.38l-1.751-.867a10.457 10.457 0 0 0-2.363-.97 3.365 3.365 0 0 0-2.377.244 1.445 1.445 0 0 1-1.007.075c-.107-.018-.214-.039-.326-.048-.283-.023-.747.048-.804.34a.858.858 0 0 0 .167.544 7.345 7.345 0 0 1 .799 3.26.228.228 0 0 1-.096.187c-.56.398-1.215.037-1.733-.242l-.276-.146c-.207-.1-.42-.188-.64-.26a4.11 4.11 0 0 1-.951-.438 1.598 1.598 0 0 1-.665-1.028.98.98 0 0 1 .183-.767c.16-.185.359-.332.582-.431l.082-.044c.403-.194.723-.526.902-.936.121-.352 0-.852-.342-1.004a.228.228 0 0 1-.117-.295.228.228 0 0 1 .295-.116c.23.031.463.012.685-.055.289-.079.59-.101.888-.066.134.033.266.074.395.123.372.13.997.351 1.265.228a.192.192 0 0 0 .1-.128.228.228 0 0 0-.052-.228c-.334-.402-1.647-.621-2.035-.573h-.061c-.137.02-.276.012-.409-.023a.644.644 0 0 1-.42-.397.874.874 0 0 1-.023-.578 24.555 24.555 0 0 0-9.5 8.22c.975 2.21.706 4.897.304 6.776-.114.536-.213 1.002-.117 1.443.135.465.369.895.685 1.262.242.322.48.66.72 1a16.505 16.505 0 0 0 1.598 2.034c.449.424.964.772 1.525 1.03.622.28 1.184.678 1.655 1.171a3.148 3.148 0 0 0 4.043.493l.13-.095c.145-.118.304-.216.475-.29.434-.165.89-.062 1.295.03a25.1 25.1 0 0 0 4.084.575c.45.053.905.026 1.345-.08.167-.053.33-.115.49-.185.327-.163.683-.26 1.047-.286zM15.982 2.142c.913.066 1.783.516 2.623.954l.402.208c.977.507 2.326.968 3.308.374a1.1 1.1 0 0 0-.438-.35c-.295-.173-.628-.367-.703-.741-.033-.26.021-.522.155-.747a.77.77 0 0 0 .132-.47.783.783 0 0 0-.185-.249 3.48 3.48 0 0 0-.431-.336 24.2 24.2 0 0 0-4.863 1.357z"/>
        <path fill="#FFF" d="M37.329 3.532c-.368.584-.747 1.062-1.699.854-.324-.064-1.077-.377-1.285-.621-.288-.343-.108-.808-.386-1.123-.279-.316-.872-.325-1.249-.27-.548.09-1.078.324-1.637.297a3.027 3.027 0 0 1-1.105-.333C28.97 1.879 27.945 1.23 27.352.34A24.703 24.703 0 0 1 36.87 3.28l.367.198.092.055z"/>
        <path fill="#151515" fill-rule="nonzero" d="M36.048 4.66a2.183 2.183 0 0 1-.457-.055c-.342-.066-1.157-.4-1.408-.685a1.233 1.233 0 0 1-.25-.685.78.78 0 0 0-.134-.43c-.194-.21-.664-.252-1.048-.195-.185.03-.37.08-.557.127a3.72 3.72 0 0 1-1.12.172c-.417-.04-.82-.16-1.19-.354-.875-.402-2.048-1.08-2.715-2.098a.228.228 0 0 1 0-.229.228.228 0 0 1 .215-.107 24.8 24.8 0 0 1 9.605 2.968l.367.196.053.032.054.035c.101.068.13.204.067.308-.336.509-.72 1-1.482 1zm-3-2.534c.394-.029.783.104 1.078.367.15.192.237.427.246.671a.854.854 0 0 0 .146.457c.344.26.738.445 1.158.543.714.156 1.027-.105 1.338-.557l-.256-.128A24.338 24.338 0 0 0 27.854.621a6.71 6.71 0 0 0 2.205 1.51c.32.167.667.273 1.025.312.335-.005.667-.058.987-.158.2-.052.4-.105.603-.137a2.63 2.63 0 0 1 .374-.022z"/>
        <path fill="#FFF" d="M46.902 13.564c-.19.358-.306.913-.566 1.141-.774.701-1.907-.098-2.464-.611-.655-.621-1.141-1.393-1.628-2.158a1146.647 1146.647 0 0 0-3.685-5.888 2.24 2.24 0 0 1-.456-1.078c-.013-.29.077-.576.253-.808a24.801 24.801 0 0 1 8.546 9.402z"/>
        <path fill="#151515" fill-rule="nonzero" d="M45.621 15.2c-.562 0-1.224-.319-1.9-.942a10.909 10.909 0 0 1-1.637-2.158l-.03-.047a1472.94 1472.94 0 0 0-2.328-3.715L38.37 6.164a2.416 2.416 0 0 1-.484-1.187c-.019-.34.082-.677.285-.952a.228.228 0 0 1 .304-.057A25.039 25.039 0 0 1 47.1 13.47a.228.228 0 0 1 0 .208 3.756 3.756 0 0 0-.17.406 2.055 2.055 0 0 1-.444.797 1.251 1.251 0 0 1-.865.32zM38.427 4.47c-.07.15-.1.313-.091.477.047.361.19.702.413.99l1.37 2.17c.777 1.24 1.553 2.48 2.326 3.72.444.766.981 1.476 1.598 2.111.33.302 1.46 1.242 2.158.608.148-.186.258-.398.324-.626.046-.119.091-.228.142-.347a24.591 24.591 0 0 0-8.24-9.094V4.47z"/>
    </g>
</svg>
